<?xml version="1.0" encoding="UTF-8" standalone="no" ?>
<!DOCTYPE svg PUBLIC "-//W3C//DTD SVG 1.1//EN" "http://www.w3.org/Graphics/SVG/1.1/DTD/svg11.dtd">
<svg xmlns="http://www.w3.org/2000/svg" xmlns:xlink="http://www.w3.org/1999/xlink" version="1.1" width="1280" height="1024" viewBox="0 0 1280 1024" xml:space="preserve">
<desc>Created with Fabric.js 5.3.0</desc>
<defs>
</defs>
<g transform="matrix(1 0 0 1 640 512)" id="background-logo"  >
<rect style="stroke: none; stroke-width: 0; stroke-dasharray: none; stroke-linecap: butt; stroke-dashoffset: 0; stroke-linejoin: miter; stroke-miterlimit: 4; fill: rgb(255,255,255); fill-opacity: 0; fill-rule: nonzero; opacity: 1;"  paint-order="stroke"  x="-640" y="-512" rx="0" ry="0" width="1280" height="1024" />
</g>
<g transform="matrix(1.9211538461538462 0 0 1.9211538461538462 637.654145810556 401.8946258412157)" id="logo-logo"  >
<g style=""  paint-order="stroke"   >
		<g transform="matrix(0.2251208632943771 0 0 0.2251208632943771 0 0)"  >
<linearGradient id="SVGID_1_417561" gradientUnits="userSpaceOnUse" gradientTransform="matrix(1 0 0 -1 0 1497.8898)"  x1="358.1001" y1="764.0897" x2="1091.2001" y2="764.0897">
<stop offset="0%" style="stop-color:rgb(189,54,250);stop-opacity: 1"/>
<stop offset="100%" style="stop-color:rgb(51,225,179);stop-opacity: 1"/>
</linearGradient>
<path style="stroke: none; stroke-width: 1; stroke-dasharray: none; stroke-linecap: butt; stroke-dashoffset: 0; stroke-linejoin: miter; stroke-miterlimit: 4; fill: url(#SVGID_1_417561); fill-rule: nonzero; opacity: 1;"  paint-order="stroke"  transform=" translate(-724.6499999999999, -733.8)" d="M 815.3 1004 L 934.3 1034.6 C 913.4 1049.1999999999998 890.9 1061.6999999999998 867.0999999999999 1071.6999999999998 L 815.3 1058.3999999999999 L 783.6999999999999 1050.1999999999998 L 796.8 999.1999999999998 L 815.3 1004 z M 1007.4 944.7 L 937.8 926.8000000000001 L 923.9 923.2 L 910.8 974.2 L 925.5 978 L 965 988.2 L 965 988.2 L 984 993.1 C 997.8 979.3000000000001 1010.6 964.4 1022 948.5 L 1007.4 944.7 L 1007.4 944.7 z M 1016.9 512 L 939.6 492.1 L 926.5 543.1 L 1056.2 576.5 C 1045.3 553.6 1032.2 532 1016.9 512 z M 1089.6 748.2 L 1034.8999999999999 734.1 L 998.0999999999999 724.6 L 985 775.7 L 1017.1 783.9000000000001 L 1080.6 800.3000000000001 L 1085.3 801.5000000000001 C 1088.5 784.3000000000001 1090.6 766.6000000000001 1091.2 748.6000000000001 L 1089.6 748.2 z M 1064 850.4 L 1071.8 852.4 C 1066 869.3 1059 885.6999999999999 1050.8999999999999 901.5 L 1039.9999999999998 898.7 L 977.1999999999998 882.5 L 977.1999999999998 882.5 L 880.5999999999998 857.6 L 867.4999999999998 908.6 L 867.4999999999998 908.6 L 906.9999999999998 918.8000000000001 L 893.8999999999997 969.8000000000001 L 893.8999999999997 969.8000000000001 L 854.3999999999997 959.6 L 803.3999999999997 946.5 L 744.9999999999998 931.5 L 744.9999999999998 931.5 L 733.3999999999997 976.6 L 731.8999999999997 982.6 L 731.8999999999997 982.6 L 780.0999999999998 995 L 766.9999999999998 1046.1 L 615.9999999999998 1007.1999999999999 C 650.0999999999998 1046.3999999999999 692.2999999999997 1078.3999999999999 740.0999999999998 1100.3 C 735.0999999999998 1100.5 729.9999999999998 1100.6 724.8999999999997 1100.6 C 522.2999999999997 1100.6 358.09999999999974 936.3999999999999 358.09999999999974 733.8 C 358.09999999999974 729.9 358.19999999999976 726.0999999999999 358.2999999999997 722.1999999999999 L 358.2999999999997 721.9 C 358.7999999999997 704.4 360.59999999999974 687.1 363.59999999999974 670.3 C 366.59999999999974 652.8 370.89999999999975 635.8 376.39999999999975 619.1999999999999 C 381.89999999999975 602.1999999999999 388.69999999999976 585.8 396.59999999999974 569.9999999999999 C 404.7999999999997 553.4999999999999 414.19999999999976 537.7999999999998 424.69999999999976 522.8999999999999 C 435.89999999999975 506.9999999999999 448.39999999999975 491.9999999999999 461.89999999999975 478.09999999999985 C 476.7999999999997 462.79999999999984 492.9999999999998 448.79999999999984 510.39999999999975 436.1999999999999 L 510.39999999999975 436.1999999999999 C 530.6999999999997 421.4999999999999 552.4999999999998 408.89999999999986 575.6999999999997 398.59999999999985 L 575.6999999999997 398.59999999999985 C 621.2999999999997 378.29999999999984 671.6999999999997 366.99999999999983 724.7999999999997 366.99999999999983 C 779.3999999999997 366.99999999999983 831.1999999999997 378.8999999999998 877.6999999999997 400.29999999999984 C 824.6999999999997 402.39999999999986 774.4999999999997 415.79999999999984 729.6999999999997 438.1999999999998 L 747.7999999999997 442.8999999999998 L 734.6999999999997 493.8999999999998 L 668.2999999999997 476.7999999999998 C 651.6999999999997 489.5999999999998 636.2999999999997 503.7999999999998 622.1999999999997 519.2999999999997 L 765.1999999999997 555.9999999999998 L 778.2999999999997 504.9999999999998 L 778.2999999999997 504.9999999999998 L 751.4999999999998 498.0999999999998 L 764.5999999999998 447.0999999999998 L 791.3999999999997 453.9999999999998 L 791.3999999999997 453.9999999999998 L 791.3999999999997 453.9999999999998 L 842.3999999999997 467.0999999999998 L 842.3999999999997 467.0999999999998 L 922.4999999999998 487.6999999999998 L 909.3999999999997 538.7999999999998 L 829.2999999999997 518.0999999999998 L 816.1999999999997 569.0999999999998 L 816.1999999999997 569.0999999999998 L 1012.8999999999996 619.6999999999998 L 1078.3999999999996 636.5999999999998 L 1078.3999999999996 636.5999999999998 C 1083.4999999999995 655.0999999999998 1087.0999999999997 674.1999999999998 1089.1999999999996 693.7999999999998 L 1015.4999999999995 674.7999999999998 L 908 647.1 L 894.9 698.1 L 894.9 698.1 L 980.9 720.3000000000001 L 967.8 771.3000000000001 L 881.6999999999999 749.1 L 830.6999999999999 736 L 764.4999999999999 719 L 777.5999999999999 668 L 843.8 685 L 843.8 685 L 843.8 685 L 856.9 634 L 856.9 634 L 586.4 564.4 C 576.4 579.5 567.5 595.4 559.8 611.9 L 760.5999999999999 663.6 L 747.4999999999999 714.6 L 696.4999999999999 701.5 L 696.4999999999999 701.5 L 683.3999999999999 752.5 L 683.3999999999999 752.5 L 1004 835 L 1004 835 L 1064 850.4 z M 529.8 712.9 L 632.5 739.3 L 632.5 739.3 L 632.5 739.3 L 645.6 688.3 L 645.6 688.3 L 541.1 661.4 C 536.2 678.1 532.4 695.3 529.8 712.9 z M 816.4 895.5 L 816.4 895.5 L 816.4 895.5 L 829.5 844.5 L 829.5 844.5 L 670.4 803.5 L 619.4 790.4 L 525.9 766.3 L 525.9 766.5999999999999 C 525.9 785.3999999999999 527.3 803.8 530 821.8 L 661.2 855.5999999999999 L 648.1 906.5999999999999 L 543.7 879.6999999999999 C 550.6 900.9999999999999 559.4000000000001 921.4 569.9000000000001 940.8 L 569.9000000000001 940.8 L 680.7 969.4 L 682.2 963.4 L 693.8000000000001 918.3 L 665.1 910.9 L 678.2 859.9 L 816.4 895.5 z" stroke-linecap="round" />
</g>
</g>
</g>
<g transform="matrix(1.9211538461538462 0 0 1.9211538461538462 639.2218073490175 655.4977534817781)" id="text-logo"  >
<g style=""  paint-order="stroke"   >
		<g transform="matrix(1 0 0 1 0 0)" id="text-logo-path-0"  >
<path style="stroke: none; stroke-width: 0; stroke-dasharray: none; stroke-linecap: butt; stroke-dashoffset: 0; stroke-linejoin: miter; stroke-miterlimit: 4; fill: rgb(168,80,239); fill-rule: nonzero; opacity: 1;"  paint-order="stroke"  transform=" translate(-93.51, 17.265)" d="M 18.05 -34.88 L 3.16 -34.88 L 3.16 0 L 18.05 0 C 28 0 35.96 -7.34 35.96 -17.29 C 35.96 -27.18 28 -34.88 18.05 -34.88 Z M 11.68 -8.01 L 11.68 -26.83 L 18.05 -26.83 C 23.31 -26.83 27.49 -22.59 27.49 -17.39 C 27.49 -12.14 23.21 -8.01 18.05 -8.01 Z M 68.34 0 L 77.42 0 L 64.62 -34.88 L 55.54 -34.88 L 42.79 0 L 51.87 0 L 54.11 -6.07 L 66.1 -6.07 Z M 57.02 -14.13 L 60.13 -22.54 L 63.14 -14.13 Z M 88.84 -34.88 L 88.84 0 L 97.36 0 L 97.36 -34.88 Z M 132.86 0 L 143.41 0 L 128.98 -19.02 L 141.73 -34.88 L 131.02 -34.88 L 120.36 -21.78 L 120.36 -34.88 L 111.84 -34.88 L 111.84 0 L 120.36 0 L 120.36 -8.21 L 123.52 -12.19 Z M 165.9 0.71 C 175.9 0.71 183.86 -7.4 183.86 -17.29 C 183.86 -27.34 175.85 -35.24 165.9 -35.24 C 155.91 -35.24 147.9 -27.18 147.9 -17.29 C 147.9 -7.45 155.96 0.71 165.9 0.71 Z M 156.37 -17.29 C 156.37 -22.49 160.75 -26.78 165.9 -26.78 C 171.16 -26.78 175.34 -22.49 175.34 -17.29 C 175.34 -12.09 171.16 -7.8 165.9 -7.8 C 160.7 -7.8 156.37 -12.14 156.37 -17.29 Z" stroke-linecap="round" />
</g>
</g>
</g>
<g transform="matrix(1.9211538461538462 0 0 1.9211538461538462 648.3974888048288 810.35803683077)" id="tagline-f4fe7636-4d31-42e3-bb1d-6068e12da67a-logo"  >
<g style=""  paint-order="stroke"   >
		<g transform="matrix(1 0 0 1 -4.646000000000129 -15.074200000000019)" id="tagline-f4fe7636-4d31-42e3-bb1d-6068e12da67a-logo-path-0"  >
<path style="stroke: none; stroke-width: 0; stroke-dasharray: none; stroke-linecap: butt; stroke-dashoffset: 0; stroke-linejoin: miter; stroke-miterlimit: 4; fill: rgb(168,80,239); fill-rule: nonzero; opacity: 1;"  paint-order="stroke"  transform=" translate(-76.05000000000001, 8.025)" d="M 14.67 -1.56 L 9.18 -15.2 C 8.67 -16.4 7.01 -16.4 6.51 -15.2 L 1.01 -1.56 C 0.94 -1.4 0.92 -1.24 0.92 -1.06 C 0.92 -0.37 1.47 0.21 2.19 0.21 C 2.69 0.21 3.15 -0.11 3.33 -0.55 L 4.74 -4.03 L 10.95 -4.03 L 12.35 -0.55 C 12.54 -0.11 12.99 0.21 13.5 0.21 C 14.21 0.21 14.77 -0.37 14.77 -1.06 C 14.77 -1.24 14.74 -1.4 14.67 -1.56 Z M 5.75 -6.55 L 7.84 -11.73 L 9.94 -6.55 Z M 27.07 -13.57 L 27.55 -13.57 L 27.55 -2.53 L 27.07 -2.53 C 26.36 -2.53 25.81 -1.96 25.81 -1.26 C 25.81 -0.57 26.36 0 27.07 0 L 30.57 0 C 31.26 0 31.83 -0.57 31.83 -1.26 C 31.83 -1.96 31.26 -2.53 30.57 -2.53 L 30.08 -2.53 L 30.08 -13.57 L 30.57 -13.57 C 31.26 -13.57 31.83 -14.14 31.83 -14.83 C 31.83 -15.53 31.26 -16.1 30.57 -16.1 L 27.07 -16.1 C 26.36 -16.1 25.81 -15.53 25.81 -14.83 C 25.81 -14.14 26.36 -13.57 27.07 -13.57 Z M 59.2 -1.15 L 59.2 -6.79 L 64.65 -6.79 C 65.34 -6.79 65.92 -7.36 65.92 -8.05 C 65.92 -8.74 65.34 -9.31 64.65 -9.31 L 59.2 -9.31 L 59.2 -13.57 L 66.26 -13.57 C 66.95 -13.57 67.53 -14.14 67.53 -14.83 C 67.53 -15.53 66.95 -16.1 66.26 -16.1 L 58.05 -16.1 C 57.29 -16.1 56.67 -15.48 56.67 -14.72 L 56.67 -1.15 C 56.67 -0.44 57.25 0.11 57.94 0.11 C 58.63 0.11 59.2 -0.44 59.2 -1.15 Z M 79.83 -13.57 L 80.32 -13.57 L 80.32 -2.53 L 79.83 -2.53 C 79.12 -2.53 78.57 -1.96 78.57 -1.26 C 78.57 -0.57 79.12 0 79.83 0 L 83.33 0 C 84.02 0 84.59 -0.57 84.59 -1.26 C 84.59 -1.96 84.02 -2.53 83.33 -2.53 L 82.85 -2.53 L 82.85 -13.57 L 83.33 -13.57 C 84.02 -13.57 84.59 -14.14 84.59 -14.83 C 84.59 -15.53 84.02 -16.1 83.33 -16.1 L 79.83 -16.1 C 79.12 -16.1 78.57 -15.53 78.57 -14.83 C 78.57 -14.14 79.12 -13.57 79.83 -13.57 Z M 98.16 -1.15 L 98.16 -5.59 L 101.41 -5.59 C 101.41 -5.57 101.43 -5.57 101.43 -5.54 L 104.08 -0.55 C 104.28 -0.16 104.7 0.09 105.18 0.09 C 105.87 0.09 106.44 -0.46 106.44 -1.17 C 106.44 -1.38 106.38 -1.61 106.28 -1.77 L 103.96 -6.16 C 105.64 -7.04 106.81 -8.83 106.81 -10.88 C 106.81 -13.75 104.47 -16.1 101.59 -16.1 L 97.01 -16.1 C 96.25 -16.1 95.63 -15.48 95.63 -14.72 L 95.63 -1.15 C 95.63 -0.44 96.21 0.11 96.9 0.11 C 97.59 0.11 98.16 -0.44 98.16 -1.15 Z M 98.16 -8.12 L 98.16 -13.57 L 101.59 -13.57 C 103.22 -13.57 104.28 -12.51 104.28 -10.88 C 104.28 -9.2 103.22 -8.12 101.59 -8.12 Z M 118.08 -2.21 C 119.09 -0.78 120.87 0.16 122.89 0.16 C 125.99 0.16 128.59 -2.16 128.59 -4.9 C 128.59 -8.49 125.74 -9.2 123.95 -9.89 C 122.04 -10.56 120.73 -10.76 120.73 -11.96 C 120.73 -13.13 121.53 -13.73 123.14 -13.73 C 124.13 -13.73 124.75 -13.41 125.23 -12.72 C 125.47 -12.4 125.86 -12.19 126.27 -12.19 C 126.96 -12.19 127.53 -12.77 127.53 -13.46 C 127.53 -13.73 127.44 -13.98 127.31 -14.19 C 126.41 -15.43 124.87 -16.26 123.14 -16.26 C 120.45 -16.26 118.2 -14.51 118.2 -11.96 C 118.2 -8.97 120.8 -8.33 123.07 -7.5 C 125 -6.76 126.06 -6.55 126.06 -4.9 C 126.06 -3.47 124.84 -2.37 122.89 -2.37 C 121.6 -2.37 120.75 -2.81 120.15 -3.68 C 119.92 -4 119.55 -4.21 119.12 -4.21 C 118.43 -4.21 117.85 -3.63 117.85 -2.94 C 117.85 -2.67 117.94 -2.42 118.08 -2.21 Z M 146.67 -1.15 L 146.67 -13.57 L 149.91 -13.57 C 150.6 -13.57 151.18 -14.14 151.18 -14.83 C 151.18 -15.53 150.6 -16.1 149.91 -16.1 L 140.9 -16.1 C 140.19 -16.1 139.63 -15.53 139.63 -14.83 C 139.63 -14.14 140.19 -13.57 140.9 -13.57 L 144.14 -13.57 L 144.14 -1.15 C 144.14 -0.44 144.72 0.11 145.41 0.11 C 146.1 0.11 146.67 -0.44 146.67 -1.15 Z" stroke-linecap="round" />
</g>
		<g transform="matrix(1 0 0 1 0 15.074199999999962)" id="tagline-f4fe7636-4d31-42e3-bb1d-6068e12da67a-logo-path-1"  >
<path style="stroke: none; stroke-width: 0; stroke-dasharray: none; stroke-linecap: butt; stroke-dashoffset: 0; stroke-linejoin: miter; stroke-miterlimit: 4; fill: rgb(168,80,239); fill-rule: nonzero; opacity: 1;"  paint-order="stroke"  transform=" translate(-322.77000000000004, 8.025)" d="M 3.45 -1.15 L 3.45 -6.79 L 11.27 -6.79 L 11.27 -1.15 C 11.27 -0.44 11.85 0.11 12.54 0.11 C 13.22 0.11 13.8 -0.44 13.8 -1.15 L 13.8 -14.97 C 13.8 -15.66 13.22 -16.24 12.54 -16.24 C 11.85 -16.24 11.27 -15.66 11.27 -14.97 L 11.27 -9.31 L 3.45 -9.31 L 3.45 -14.97 C 3.45 -15.66 2.88 -16.24 2.19 -16.24 C 1.49 -16.24 0.92 -15.66 0.92 -14.97 L 0.92 -1.15 C 0.92 -0.44 1.49 0.11 2.19 0.11 C 2.88 0.11 3.45 -0.44 3.45 -1.15 Z M 34.43 -2.53 L 27.37 -2.53 L 27.37 -6.79 L 32.82 -6.79 C 33.51 -6.79 34.09 -7.36 34.09 -8.05 C 34.09 -8.74 33.51 -9.31 32.82 -9.31 L 27.37 -9.31 L 27.37 -13.57 L 34.43 -13.57 C 35.12 -13.57 35.7 -14.14 35.7 -14.83 C 35.7 -15.53 35.12 -16.1 34.43 -16.1 L 26.22 -16.1 C 25.46 -16.1 24.84 -15.48 24.84 -14.72 L 24.84 -1.38 C 24.84 -0.62 25.46 0 26.22 0 L 34.43 0 C 35.12 0 35.7 -0.57 35.7 -1.26 C 35.7 -1.96 35.12 -2.53 34.43 -2.53 Z M 60.49 -1.56 L 54.99 -15.2 C 54.49 -16.4 52.83 -16.4 52.33 -15.2 L 46.83 -1.56 C 46.76 -1.4 46.74 -1.24 46.74 -1.06 C 46.74 -0.37 47.29 0.21 48 0.21 C 48.51 0.21 48.97 -0.11 49.15 -0.55 L 50.55 -4.03 L 56.76 -4.03 L 58.17 -0.55 C 58.35 -0.11 58.81 0.21 59.32 0.21 C 60.03 0.21 60.58 -0.37 60.58 -1.06 C 60.58 -1.24 60.56 -1.4 60.49 -1.56 Z M 51.57 -6.55 L 53.66 -11.73 L 55.75 -6.55 Z M 81.21 -2.53 L 74.15 -2.53 L 74.15 -14.97 C 74.15 -15.66 73.58 -16.24 72.89 -16.24 C 72.2 -16.24 71.62 -15.66 71.62 -14.97 L 71.62 -1.38 C 71.62 -0.62 72.24 0 73 0 L 81.21 0 C 81.9 0 82.48 -0.57 82.48 -1.26 C 82.48 -1.96 81.9 -2.53 81.21 -2.53 Z M 100.56 -1.15 L 100.56 -13.57 L 103.8 -13.57 C 104.49 -13.57 105.06 -14.14 105.06 -14.83 C 105.06 -15.53 104.49 -16.1 103.8 -16.1 L 94.78 -16.1 C 94.07 -16.1 93.52 -15.53 93.52 -14.83 C 93.52 -14.14 94.07 -13.57 94.78 -13.57 L 98.03 -13.57 L 98.03 -1.15 C 98.03 -0.44 98.6 0.11 99.29 0.11 C 99.98 0.11 100.56 -0.44 100.56 -1.15 Z M 118.63 -1.15 L 118.63 -6.79 L 126.45 -6.79 L 126.45 -1.15 C 126.45 -0.44 127.03 0.11 127.72 0.11 C 128.41 0.11 128.98 -0.44 128.98 -1.15 L 128.98 -14.97 C 128.98 -15.66 128.41 -16.24 127.72 -16.24 C 127.03 -16.24 126.45 -15.66 126.45 -14.97 L 126.45 -9.31 L 118.63 -9.31 L 118.63 -14.97 C 118.63 -15.66 118.06 -16.24 117.37 -16.24 C 116.68 -16.24 116.1 -15.66 116.1 -14.97 L 116.1 -1.15 C 116.1 -0.44 116.68 0.11 117.37 0.11 C 118.06 0.11 118.63 -0.44 118.63 -1.15 Z M 151.62 -3.45 C 150.67 -2.74 149.57 -2.37 148.26 -2.37 C 144.92 -2.37 142.55 -4.74 142.55 -8.07 C 142.55 -11.36 144.92 -13.73 148.26 -13.73 C 149.29 -13.73 150.14 -13.52 150.93 -13.06 C 151.11 -12.97 151.32 -12.9 151.55 -12.9 C 152.24 -12.9 152.81 -13.48 152.81 -14.17 C 152.81 -14.65 152.54 -15.06 152.14 -15.27 C 150.99 -15.92 149.66 -16.26 148.26 -16.26 C 143.68 -16.26 140.02 -12.6 140.02 -8.07 C 140.02 -3.5 143.68 0.16 148.26 0.16 C 150.05 0.16 151.75 -0.44 153.11 -1.43 C 153.43 -1.66 153.64 -2.05 153.64 -2.46 C 153.64 -3.15 153.06 -3.7 152.37 -3.7 C 152.1 -3.7 151.82 -3.61 151.62 -3.45 Z M 178.43 -1.56 L 172.94 -15.2 C 172.43 -16.4 170.77 -16.4 170.27 -15.2 L 164.77 -1.56 C 164.7 -1.4 164.68 -1.24 164.68 -1.06 C 164.68 -0.37 165.23 0.21 165.94 0.21 C 166.45 0.21 166.91 -0.11 167.09 -0.55 L 168.5 -4.03 L 174.71 -4.03 L 176.11 -0.55 C 176.29 -0.11 176.75 0.21 177.26 0.21 C 177.97 0.21 178.53 -0.37 178.53 -1.06 C 178.53 -1.24 178.5 -1.4 178.43 -1.56 Z M 169.51 -6.55 L 171.6 -11.73 L 173.7 -6.55 Z M 192.1 -1.15 L 192.1 -5.59 L 195.34 -5.59 C 195.34 -5.57 195.36 -5.57 195.36 -5.54 L 198.01 -0.55 C 198.21 -0.16 198.63 0.09 199.11 0.09 C 199.8 0.09 200.38 -0.46 200.38 -1.17 C 200.38 -1.38 200.31 -1.61 200.21 -1.77 L 197.89 -6.16 C 199.57 -7.04 200.74 -8.83 200.74 -10.88 C 200.74 -13.75 198.4 -16.1 195.52 -16.1 L 190.95 -16.1 C 190.19 -16.1 189.57 -15.48 189.57 -14.72 L 189.57 -1.15 C 189.57 -0.44 190.14 0.11 190.83 0.11 C 191.52 0.11 192.1 -0.44 192.1 -1.15 Z M 192.1 -8.12 L 192.1 -13.57 L 195.52 -13.57 C 197.16 -13.57 198.21 -12.51 198.21 -10.88 C 198.21 -9.2 197.16 -8.12 195.52 -8.12 Z M 221.37 -2.53 L 214.31 -2.53 L 214.31 -6.79 L 219.76 -6.79 C 220.45 -6.79 221.03 -7.36 221.03 -8.05 C 221.03 -8.74 220.45 -9.31 219.76 -9.31 L 214.31 -9.31 L 214.31 -13.57 L 221.37 -13.57 C 222.06 -13.57 222.64 -14.14 222.64 -14.83 C 222.64 -15.53 222.06 -16.1 221.37 -16.1 L 213.16 -16.1 C 212.4 -16.1 211.78 -15.48 211.78 -14.72 L 211.78 -1.38 C 211.78 -0.62 212.4 0 213.16 0 L 221.37 0 C 222.06 0 222.64 -0.57 222.64 -1.26 C 222.64 -1.96 222.06 -2.53 221.37 -2.53 Z M 248.74 -13.57 L 249.23 -13.57 L 249.23 -2.53 L 248.74 -2.53 C 248.03 -2.53 247.48 -1.96 247.48 -1.26 C 247.48 -0.57 248.03 0 248.74 0 L 252.24 0 C 252.93 0 253.51 -0.57 253.51 -1.26 C 253.51 -1.96 252.93 -2.53 252.24 -2.53 L 251.76 -2.53 L 251.76 -13.57 L 252.24 -13.57 C 252.93 -13.57 253.51 -14.14 253.51 -14.83 C 253.51 -15.53 252.93 -16.1 252.24 -16.1 L 248.74 -16.1 C 248.03 -16.1 247.48 -15.53 247.48 -14.83 C 247.48 -14.14 248.03 -13.57 248.74 -13.57 Z M 267.08 -1.15 L 267.03 -11.48 L 275.75 -0.53 C 276.62 0.51 278.35 -0.07 278.35 -1.45 L 278.35 -14.97 C 278.35 -15.66 277.77 -16.24 277.08 -16.24 C 276.39 -16.24 275.82 -15.66 275.82 -14.97 L 275.82 -4.51 L 266.98 -15.59 C 266.18 -16.65 264.5 -15.96 264.5 -14.67 L 264.55 -1.13 C 264.55 -0.44 265.12 0.14 265.81 0.14 C 266.5 0.14 267.08 -0.44 267.08 -1.15 Z M 291.92 -1.15 L 291.92 -6.79 L 297.37 -6.79 C 298.06 -6.79 298.63 -7.36 298.63 -8.05 C 298.63 -8.74 298.06 -9.31 297.37 -9.31 L 291.92 -9.31 L 291.92 -13.57 L 298.98 -13.57 C 299.67 -13.57 300.24 -14.14 300.24 -14.83 C 300.24 -15.53 299.67 -16.1 298.98 -16.1 L 290.77 -16.1 C 290.01 -16.1 289.39 -15.48 289.39 -14.72 L 289.39 -1.15 C 289.39 -0.44 289.96 0.11 290.65 0.11 C 291.34 0.11 291.92 -0.44 291.92 -1.15 Z M 319.75 -2.37 C 316.39 -2.37 314.04 -4.71 314.04 -8.07 C 314.04 -11.38 316.39 -13.73 319.75 -13.73 C 323.03 -13.73 325.4 -11.38 325.4 -8.07 C 325.4 -4.71 323.03 -2.37 319.75 -2.37 Z M 311.51 -8.07 C 311.51 -3.47 315.15 0.16 319.75 0.16 C 324.25 0.16 327.93 -3.47 327.93 -8.07 C 327.93 -12.63 324.25 -16.26 319.75 -16.26 C 315.15 -16.26 311.51 -12.63 311.51 -8.07 Z M 341.5 -1.15 L 341.5 -5.59 L 344.75 -5.59 C 344.75 -5.57 344.77 -5.57 344.77 -5.54 L 347.41 -0.55 C 347.62 -0.16 348.04 0.09 348.52 0.09 C 349.21 0.09 349.78 -0.46 349.78 -1.17 C 349.78 -1.38 349.71 -1.61 349.62 -1.77 L 347.3 -6.16 C 348.98 -7.04 350.15 -8.83 350.15 -10.88 C 350.15 -13.75 347.81 -16.1 344.93 -16.1 L 340.35 -16.1 C 339.59 -16.1 338.97 -15.48 338.97 -14.72 L 338.97 -1.15 C 338.97 -0.44 339.55 0.11 340.24 0.11 C 340.93 0.11 341.5 -0.44 341.5 -1.15 Z M 341.5 -8.12 L 341.5 -13.57 L 344.93 -13.57 C 346.56 -13.57 347.62 -12.51 347.62 -10.88 C 347.62 -9.2 346.56 -8.12 344.93 -8.12 Z M 376.37 -1.15 L 376.37 -14.67 C 376.37 -16.15 374.42 -16.65 373.66 -15.43 L 368.78 -7.75 L 363.91 -15.43 C 363.15 -16.65 361.19 -16.15 361.19 -14.67 L 361.19 -1.15 C 361.19 -0.44 361.77 0.11 362.46 0.11 C 363.15 0.11 363.72 -0.44 363.72 -1.15 L 363.72 -10.99 L 367.59 -4.95 C 368.11 -4.03 369.45 -4.03 369.98 -4.95 L 373.84 -11.02 L 373.84 -1.15 C 373.84 -0.44 374.42 0.11 375.11 0.11 C 375.8 0.11 376.37 -0.44 376.37 -1.15 Z M 369.72 -6.28 C 369.75 -6.26 369.77 -6.23 369.77 -6.21 Z M 401.17 -1.56 L 395.67 -15.2 C 395.16 -16.4 393.51 -16.4 393 -15.2 L 387.5 -1.56 C 387.43 -1.4 387.41 -1.24 387.41 -1.06 C 387.41 -0.37 387.96 0.21 388.68 0.21 C 389.18 0.21 389.64 -0.11 389.83 -0.55 L 391.23 -4.03 L 397.44 -4.03 L 398.84 -0.55 C 399.03 -0.11 399.49 0.21 399.99 0.21 C 400.71 0.21 401.26 -0.37 401.26 -1.06 C 401.26 -1.24 401.23 -1.4 401.17 -1.56 Z M 392.24 -6.55 L 394.33 -11.73 L 396.43 -6.55 Z M 419.34 -1.15 L 419.34 -13.57 L 422.58 -13.57 C 423.27 -13.57 423.84 -14.14 423.84 -14.83 C 423.84 -15.53 423.27 -16.1 422.58 -16.1 L 413.56 -16.1 C 412.85 -16.1 412.3 -15.53 412.3 -14.83 C 412.3 -14.14 412.85 -13.57 413.56 -13.57 L 416.81 -13.57 L 416.81 -1.15 C 416.81 -0.44 417.38 0.11 418.07 0.11 C 418.76 0.11 419.34 -0.44 419.34 -1.15 Z M 436.15 -13.57 L 436.63 -13.57 L 436.63 -2.53 L 436.15 -2.53 C 435.44 -2.53 434.88 -1.96 434.88 -1.26 C 434.88 -0.57 435.44 0 436.15 0 L 439.64 0 C 440.33 0 440.91 -0.57 440.91 -1.26 C 440.91 -1.96 440.33 -2.53 439.64 -2.53 L 439.16 -2.53 L 439.16 -13.57 L 439.64 -13.57 C 440.33 -13.57 440.91 -14.14 440.91 -14.83 C 440.91 -15.53 440.33 -16.1 439.64 -16.1 L 436.15 -16.1 C 435.44 -16.1 434.88 -15.53 434.88 -14.83 C 434.88 -14.14 435.44 -13.57 436.15 -13.57 Z M 460.41 -2.37 C 457.06 -2.37 454.71 -4.71 454.71 -8.07 C 454.71 -11.38 457.06 -13.73 460.41 -13.73 C 463.7 -13.73 466.07 -11.38 466.07 -8.07 C 466.07 -4.71 463.7 -2.37 460.41 -2.37 Z M 452.18 -8.07 C 452.18 -3.47 455.81 0.16 460.41 0.16 C 464.92 0.16 468.6 -3.47 468.6 -8.07 C 468.6 -12.63 464.92 -16.26 460.41 -16.26 C 455.81 -16.26 452.18 -12.63 452.18 -8.07 Z M 482.17 -1.15 L 482.13 -11.48 L 490.84 -0.53 C 491.72 0.51 493.44 -0.07 493.44 -1.45 L 493.44 -14.97 C 493.44 -15.66 492.87 -16.24 492.18 -16.24 C 491.49 -16.24 490.91 -15.66 490.91 -14.97 L 490.91 -4.51 L 482.08 -15.59 C 481.27 -16.65 479.6 -15.96 479.6 -14.67 L 479.64 -1.13 C 479.64 -0.44 480.22 0.14 480.91 0.14 C 481.6 0.14 482.17 -0.44 482.17 -1.15 Z M 518.51 -2.21 C 519.52 -0.78 521.29 0.16 523.32 0.16 C 526.42 0.16 529.02 -2.16 529.02 -4.9 C 529.02 -8.49 526.17 -9.2 524.38 -9.89 C 522.47 -10.56 521.16 -10.76 521.16 -11.96 C 521.16 -13.13 521.96 -13.73 523.57 -13.73 C 524.56 -13.73 525.18 -13.41 525.66 -12.72 C 525.89 -12.4 526.29 -12.19 526.7 -12.19 C 527.39 -12.19 527.96 -12.77 527.96 -13.46 C 527.96 -13.73 527.87 -13.98 527.73 -14.19 C 526.84 -15.43 525.3 -16.26 523.57 -16.26 C 520.88 -16.26 518.63 -14.51 518.63 -11.96 C 518.63 -8.97 521.23 -8.33 523.5 -7.5 C 525.43 -6.76 526.49 -6.55 526.49 -4.9 C 526.49 -3.47 525.27 -2.37 523.32 -2.37 C 522.03 -2.37 521.18 -2.81 520.58 -3.68 C 520.35 -4 519.98 -4.21 519.55 -4.21 C 518.86 -4.21 518.28 -3.63 518.28 -2.94 C 518.28 -2.67 518.37 -2.42 518.51 -2.21 Z M 540.29 -14.17 L 544.85 -7.43 L 544.85 -1.15 C 544.85 -0.44 545.42 0.11 546.11 0.11 C 546.8 0.11 547.38 -0.44 547.38 -1.15 L 547.38 -7.5 L 551.91 -14.17 C 552.05 -14.35 552.14 -14.61 552.14 -14.88 C 552.14 -15.57 551.59 -16.15 550.87 -16.15 C 550.46 -16.15 550.07 -15.94 549.84 -15.62 L 546.09 -10.1 L 542.36 -15.59 C 542.13 -15.94 541.74 -16.15 541.33 -16.15 C 540.61 -16.15 540.06 -15.57 540.06 -14.88 C 540.06 -14.61 540.13 -14.35 540.29 -14.17 Z M 563.41 -2.21 C 564.42 -0.78 566.19 0.16 568.21 0.16 C 571.32 0.16 573.92 -2.16 573.92 -4.9 C 573.92 -8.49 571.07 -9.2 569.27 -9.89 C 567.36 -10.56 566.05 -10.76 566.05 -11.96 C 566.05 -13.13 566.86 -13.73 568.47 -13.73 C 569.46 -13.73 570.08 -13.41 570.56 -12.72 C 570.79 -12.4 571.18 -12.19 571.6 -12.19 C 572.29 -12.19 572.86 -12.77 572.86 -13.46 C 572.86 -13.73 572.77 -13.98 572.63 -14.19 C 571.73 -15.43 570.19 -16.26 568.47 -16.26 C 565.78 -16.26 563.52 -14.51 563.52 -11.96 C 563.52 -8.97 566.12 -8.33 568.4 -7.5 C 570.33 -6.76 571.39 -6.55 571.39 -4.9 C 571.39 -3.47 570.17 -2.37 568.21 -2.37 C 566.93 -2.37 566.08 -2.81 565.48 -3.68 C 565.25 -4 564.88 -4.21 564.44 -4.21 C 563.75 -4.21 563.18 -3.63 563.18 -2.94 C 563.18 -2.67 563.27 -2.42 563.41 -2.21 Z M 592 -1.15 L 592 -13.57 L 595.24 -13.57 C 595.93 -13.57 596.5 -14.14 596.5 -14.83 C 596.5 -15.53 595.93 -16.1 595.24 -16.1 L 586.22 -16.1 C 585.51 -16.1 584.96 -15.53 584.96 -14.83 C 584.96 -14.14 585.51 -13.57 586.22 -13.57 L 589.47 -13.57 L 589.47 -1.15 C 589.47 -0.44 590.04 0.11 590.73 0.11 C 591.42 0.11 592 -0.44 592 -1.15 Z M 617.14 -2.53 L 610.08 -2.53 L 610.08 -6.79 L 615.53 -6.79 C 616.22 -6.79 616.79 -7.36 616.79 -8.05 C 616.79 -8.74 616.22 -9.31 615.53 -9.31 L 610.08 -9.31 L 610.08 -13.57 L 617.14 -13.57 C 617.83 -13.57 618.4 -14.14 618.4 -14.83 C 618.4 -15.53 617.83 -16.1 617.14 -16.1 L 608.92 -16.1 C 608.17 -16.1 607.54 -15.48 607.54 -14.72 L 607.54 -1.38 C 607.54 -0.62 608.17 0 608.92 0 L 617.14 0 C 617.83 0 618.4 -0.57 618.4 -1.26 C 618.4 -1.96 617.83 -2.53 617.14 -2.53 Z M 644.62 -1.15 L 644.62 -14.67 C 644.62 -16.15 642.67 -16.65 641.91 -15.43 L 637.03 -7.75 L 632.16 -15.43 C 631.4 -16.65 629.44 -16.15 629.44 -14.67 L 629.44 -1.15 C 629.44 -0.44 630.02 0.11 630.71 0.11 C 631.4 0.11 631.97 -0.44 631.97 -1.15 L 631.97 -10.99 L 635.84 -4.95 C 636.36 -4.03 637.7 -4.03 638.23 -4.95 L 642.09 -11.02 L 642.09 -1.15 C 642.09 -0.44 642.67 0.11 643.36 0.11 C 644.05 0.11 644.62 -0.44 644.62 -1.15 Z M 637.97 -6.28 C 638 -6.26 638.02 -6.23 638.02 -6.21 Z" stroke-linecap="round" />
</g>
</g>
</g>
</svg>