<svg width="20" height="20" viewBox="0 0 20 20" fill="none" xmlns="http://www.w3.org/2000/svg">
<g clip-path="url(#clip0_1083_6328)">
<path d="M9.16406 3.33417H5.66406C4.26393 3.33417 3.56387 3.33417 3.02909 3.60666C2.55868 3.84634 2.17623 4.22879 1.93655 4.6992C1.66406 5.23398 1.66406 5.93404 1.66406 7.33417V14.3342C1.66406 15.7343 1.66406 16.4344 1.93655 16.9691C2.17623 17.4396 2.55868 17.822 3.02909 18.0617C3.56387 18.3342 4.26393 18.3342 5.66406 18.3342H12.6641C14.0642 18.3342 14.7643 18.3342 15.299 18.0617C15.7694 17.822 16.1519 17.4396 16.3916 16.9691C16.6641 16.4344 16.6641 15.7343 16.6641 14.3342V10.8342M6.66404 13.3342H8.05949C8.46714 13.3342 8.67097 13.3342 8.86278 13.2881C9.03284 13.2473 9.19542 13.18 9.34454 13.0886C9.51273 12.9855 9.65686 12.8414 9.94511 12.5531L17.9141 4.58417C18.6044 3.89382 18.6044 2.77453 17.9141 2.08417C17.2237 1.39382 16.1044 1.39382 15.4141 2.08417L7.44509 10.0531C7.15684 10.3414 7.01271 10.4855 6.90964 10.6537C6.81826 10.8028 6.75092 10.9654 6.71009 11.1355C6.66404 11.3273 6.66404 11.5311 6.66404 11.9387V13.3342Z" stroke="#344054" stroke-width="2" stroke-linecap="round" stroke-linejoin="round"/>
</g>
<defs>
<clipPath id="clip0_1083_6328">
<rect width="20" height="20" fill="white"/>
</clipPath>
</defs>
</svg>
