<svg width="31" height="31" viewBox="0 0 31 31" fill="none" xmlns="http://www.w3.org/2000/svg">
<path d="M26.0266 10.8832H15.4959H4.96516C4.1241 10.8832 3.35925 11.2275 2.80374 11.783C2.24824 12.3376 1.90391 13.1033 1.90391 13.9444V22.7306C1.90391 23.5716 2.24915 24.3365 2.80374 24.892C3.35833 25.4466 4.1241 25.7918 4.96516 25.7918H10.792C11.2741 25.7918 11.7267 25.8956 12.1381 26.0948C12.5503 26.2959 12.9121 26.5888 13.2105 26.969L14.182 28.2067C14.3491 28.4188 14.5437 28.5795 14.7604 28.6851C14.978 28.7906 15.226 28.8448 15.4968 28.8448C15.7677 28.8448 16.0156 28.7906 16.2332 28.6851C16.449 28.5795 16.6446 28.4197 16.8117 28.2067L17.7831 26.969C18.0806 26.5888 18.4433 26.2959 18.8556 26.0948C19.2669 25.8947 19.7196 25.7918 20.2016 25.7918H26.0285C26.8695 25.7918 27.6344 25.4475 28.1899 24.892C28.7445 24.3374 29.0897 23.5726 29.0897 22.7306V13.9444C29.0897 13.1033 28.7454 12.3385 28.1899 11.783C27.6353 11.2284 26.8695 10.8832 26.0285 10.8832H26.0266ZM15.7365 19.3131C16.0156 19.044 16.4591 19.0532 16.7281 19.3324C16.9962 19.6115 16.988 20.055 16.7088 20.324L15.0359 21.9318L15.7034 22.1383C16.0734 22.2522 16.281 22.6443 16.1671 23.0143C16.0532 23.3843 15.6612 23.5918 15.2911 23.4789L13.5007 22.9252C13.385 22.8922 13.2766 22.8297 13.1876 22.737C12.9185 22.4579 12.9277 22.0144 13.2069 21.7454L15.7374 19.314L15.7365 19.3131ZM15.4968 6.03695C16.033 6.03695 16.5178 5.81933 16.8686 5.46859C17.2193 5.11784 17.437 4.63211 17.437 4.09681C17.437 3.56058 17.2193 3.07578 16.8686 2.72503C16.5178 2.37336 16.0321 2.15667 15.4968 2.15667C14.9606 2.15667 14.4758 2.37336 14.125 2.72503C13.7743 3.07578 13.5567 3.5615 13.5567 4.09681C13.5567 4.63211 13.7743 5.11784 14.125 5.46859C14.4758 5.81933 14.9615 6.03695 15.4968 6.03695ZM17.863 6.46299C17.4158 6.91015 16.842 7.23151 16.2002 7.36924V9.47741H26.0276C27.257 9.47741 28.3735 9.97966 29.1825 10.7886C29.9914 11.5975 30.4936 12.715 30.4936 13.9435V22.7297C30.4936 23.9591 29.9914 25.0756 29.1825 25.8846C28.3735 26.6935 27.2561 27.1957 26.0276 27.1957H20.2007C19.9298 27.1957 19.6819 27.2499 19.4643 27.3555C19.2486 27.4611 19.053 27.6209 18.8868 27.8339L17.9153 29.0716C17.6169 29.4517 17.2552 29.7446 16.8429 29.9457C16.4315 30.145 15.9789 30.2487 15.4968 30.2487C15.0148 30.2487 14.5621 30.145 14.1508 29.9457C13.7385 29.7446 13.3767 29.4517 13.0783 29.0716L12.1069 27.8339C11.9407 27.6218 11.7451 27.4611 11.5293 27.3555C11.3117 27.2499 11.0638 27.1957 10.7929 27.1957H4.96608C3.73662 27.1957 2.6201 26.6935 1.81118 25.8846C1.00225 25.0756 0.5 23.9582 0.5 22.7297V13.9435C0.5 12.714 1.00225 11.5975 1.81118 10.7886C2.6201 9.97966 3.73754 9.47741 4.96608 9.47741H14.7935V7.36924C14.1517 7.23151 13.5778 6.91015 13.1306 6.46299C12.5256 5.85698 12.15 5.02051 12.15 4.09681C12.15 3.17219 12.5246 2.33572 13.1306 1.73063C13.7357 1.12462 14.5731 0.75 15.4968 0.75C16.4205 0.75 17.2579 1.12462 17.863 1.73063C18.4681 2.33572 18.8436 3.17219 18.8436 4.09681C18.8436 5.02051 18.469 5.85698 17.863 6.46299ZM22.352 20.2965C21.454 20.2965 20.6405 19.9319 20.0511 19.3434C19.4625 18.7548 19.098 17.9413 19.098 17.0424C19.098 16.1444 19.4625 15.3309 20.0511 14.7414C20.6396 14.1528 21.4531 13.7883 22.352 13.7883C23.25 13.7883 24.0635 14.1519 24.653 14.7414C25.2416 15.33 25.6061 16.1435 25.6061 17.0424C25.6061 17.9404 25.2425 18.7539 24.653 19.3434C24.0645 19.9319 23.2509 20.2965 22.352 20.2965ZM21.0455 18.349C21.3797 18.6832 21.8415 18.8898 22.352 18.8898C22.8626 18.8898 23.3244 18.6832 23.6586 18.349C23.9928 18.0148 24.1994 17.5529 24.1994 17.0424C24.1994 16.5319 23.9928 16.07 23.6586 15.7358C23.3244 15.4016 22.8626 15.195 22.352 15.195C21.8415 15.195 21.3797 15.4016 21.0455 15.7358C20.7112 16.07 20.5046 16.5319 20.5046 17.0424C20.5046 17.5529 20.7112 18.0148 21.0455 18.349ZM8.64252 18.8898C9.15304 18.8898 9.61489 18.6832 9.94911 18.349C10.2833 18.0148 10.4899 17.5529 10.4899 17.0424C10.4899 16.5319 10.2833 16.07 9.94911 15.7358C9.61489 15.4016 9.15304 15.195 8.64252 15.195C8.13201 15.195 7.67016 15.4016 7.33594 15.7358C7.00171 16.07 6.79512 16.5319 6.79512 17.0424C6.79512 17.5529 7.00171 18.0148 7.33594 18.349C7.67016 18.6832 8.13201 18.8898 8.64252 18.8898ZM10.9435 19.3425C10.3549 19.931 9.54143 20.2955 8.64252 20.2955C7.74453 20.2955 6.93101 19.931 6.34153 19.3425C5.75297 18.7539 5.38845 17.9404 5.38845 17.0415C5.38845 16.1435 5.75205 15.33 6.34153 14.7405C6.93009 14.1519 7.74361 13.7874 8.64252 13.7874C9.54051 13.7874 10.354 14.151 10.9435 14.7405C11.5321 15.329 11.8966 16.1426 11.8966 17.0415C11.8966 17.9395 11.5321 18.753 10.9435 19.3425Z" fill="white"/>
</svg>
