<svg width="20" height="20" viewBox="0 0 24 24" fill="none" xmlns="http://www.w3.org/2000/svg">
<path d="M20.0376 8.55726H12.1839H4.3301C3.70284 8.55726 3.13241 8.81405 2.71812 9.22834C2.30383 9.64195 2.04703 10.2131 2.04703 10.8403V17.393C2.04703 18.0203 2.30451 18.5907 2.71812 19.005C3.13173 19.4186 3.70284 19.6761 4.3301 19.6761H8.67573C9.03524 19.6761 9.37283 19.7534 9.67962 19.902C9.98708 20.052 10.2569 20.2705 10.4794 20.554L11.2039 21.477C11.3286 21.6352 11.4737 21.7551 11.6354 21.8338C11.7976 21.9126 11.9825 21.953 12.1846 21.953C12.3866 21.953 12.5715 21.9126 12.7337 21.8338C12.8947 21.7551 13.0405 21.6359 13.1652 21.477L13.8897 20.554C14.1115 20.2705 14.382 20.052 14.6895 19.902C14.9963 19.7528 15.3339 19.6761 15.6934 19.6761H20.039C20.6663 19.6761 21.2367 19.4193 21.651 19.005C22.0646 18.5914 22.3221 18.0209 22.3221 17.393V10.8403C22.3221 10.2131 22.0653 9.64264 21.651 9.22834C21.2374 8.81474 20.6663 8.55726 20.039 8.55726H20.0376ZM12.3633 14.8442C12.5715 14.6436 12.9022 14.6505 13.1028 14.8586C13.3028 15.0668 13.2966 15.3975 13.0885 15.5982L11.8408 16.7972L12.3386 16.9513C12.6146 17.0362 12.7694 17.3286 12.6844 17.6046C12.5995 17.8806 12.3071 18.0353 12.0312 17.9511L10.6958 17.5382C10.6096 17.5135 10.5287 17.467 10.4623 17.3978C10.2617 17.1896 10.2685 16.8589 10.4767 16.6582L12.364 14.8449L12.3633 14.8442ZM12.1846 4.94298C12.5845 4.94298 12.946 4.78068 13.2076 4.5191C13.4692 4.25751 13.6315 3.89526 13.6315 3.49603C13.6315 3.09612 13.4692 2.73455 13.2076 2.47297C12.946 2.2107 12.5838 2.04909 12.1846 2.04909C11.7846 2.04909 11.4231 2.2107 11.1615 2.47297C10.8999 2.73455 10.7376 3.0968 10.7376 3.49603C10.7376 3.89526 10.8999 4.25751 11.1615 4.5191C11.4231 4.78068 11.7853 4.94298 12.1846 4.94298ZM13.9492 5.26072C13.6157 5.5942 13.1878 5.83388 12.7091 5.9366V7.50886H20.0383C20.9552 7.50886 21.7879 7.88343 22.3912 8.48672C22.9945 9.09002 23.3691 9.9234 23.3691 10.8396V17.3923C23.3691 18.3092 22.9945 19.1419 22.3912 19.7452C21.7879 20.3485 20.9546 20.7231 20.0383 20.7231H15.6927C15.4907 20.7231 15.3058 20.7635 15.1435 20.8423C14.9826 20.921 14.8367 21.0402 14.7128 21.199L13.9883 22.1221C13.7657 22.4056 13.4959 22.6241 13.1884 22.774C12.8817 22.9226 12.5441 23 12.1846 23C11.825 23 11.4874 22.9226 11.1807 22.774C10.8732 22.6241 10.6034 22.4056 10.3808 22.1221L9.65633 21.199C9.53239 21.0408 9.38653 20.921 9.22561 20.8423C9.06331 20.7635 8.87842 20.7231 8.67641 20.7231H4.33078C3.41386 20.7231 2.58116 20.3485 1.97787 19.7452C1.37458 19.1419 1 18.3086 1 17.3923V10.8396C1 9.92271 1.37458 9.09002 1.97787 8.48672C2.58116 7.88343 3.41454 7.50886 4.33078 7.50886H11.66V5.9366C11.1813 5.83388 10.7534 5.5942 10.4199 5.26072C9.96859 4.80876 9.68852 4.18492 9.68852 3.49603C9.68852 2.80646 9.96791 2.18262 10.4199 1.73135C10.8711 1.27939 11.4957 1 12.1846 1C12.8734 1 13.498 1.27939 13.9492 1.73135C14.4005 2.18262 14.6806 2.80646 14.6806 3.49603C14.6806 4.18492 14.4012 4.80876 13.9492 5.26072ZM17.2971 15.5776C16.6274 15.5776 16.0207 15.3058 15.5811 14.8668C15.1421 14.4279 14.8703 13.8212 14.8703 13.1508C14.8703 12.4811 15.1421 11.8743 15.5811 11.4347C16.02 10.9958 16.6267 10.7239 17.2971 10.7239C17.9669 10.7239 18.5736 10.9951 19.0132 11.4347C19.4521 11.8737 19.724 12.4804 19.724 13.1508C19.724 13.8205 19.4528 14.4272 19.0132 14.8668C18.5743 15.3058 17.9675 15.5776 17.2971 15.5776ZM16.3227 14.1252C16.572 14.3745 16.9164 14.5286 17.2971 14.5286C17.6779 14.5286 18.0223 14.3745 18.2716 14.1252C18.5208 13.876 18.6749 13.5315 18.6749 13.1508C18.6749 12.77 18.5208 12.4256 18.2716 12.1763C18.0223 11.9271 17.6779 11.773 17.2971 11.773C16.9164 11.773 16.572 11.9271 16.3227 12.1763C16.0734 12.4256 15.9194 12.77 15.9194 13.1508C15.9194 13.5315 16.0734 13.876 16.3227 14.1252ZM7.07265 14.5286C7.45339 14.5286 7.79783 14.3745 8.0471 14.1252C8.29636 13.876 8.45043 13.5315 8.45043 13.1508C8.45043 12.77 8.29636 12.4256 8.0471 12.1763C7.79783 11.9271 7.45339 11.773 7.07265 11.773C6.69191 11.773 6.34747 11.9271 6.0982 12.1763C5.84894 12.4256 5.69487 12.77 5.69487 13.1508C5.69487 13.5315 5.84894 13.876 6.0982 14.1252C6.34747 14.3745 6.69191 14.5286 7.07265 14.5286ZM8.78871 14.8662C8.34977 15.3051 7.74305 15.577 7.07265 15.577C6.40293 15.577 5.79622 15.3051 5.35659 14.8662C4.91764 14.4272 4.64578 13.8205 4.64578 13.1501C4.64578 12.4804 4.91695 11.8737 5.35659 11.434C5.79553 10.9951 6.40225 10.7232 7.07265 10.7232C7.74237 10.7232 8.34908 10.9944 8.78871 11.434C9.22766 11.873 9.49952 12.4797 9.49952 13.1501C9.49952 13.8198 9.22766 14.4265 8.78871 14.8662Z" fill="#838E97"/>
</svg>
