<svg width="240" height="240" viewBox="0 0 240 240" fill="none" xmlns="http://www.w3.org/2000/svg">
<path d="M124.856 116.704H115.308L120.084 108.819L124.856 100.933L129.632 108.819L134.408 116.704H124.856Z" fill="#EC6263"/>
<path d="M124.856 116.682H134.408L129.632 124.571L124.856 132.457L120.084 124.571L115.308 116.682H124.856Z" fill="#EA4D63"/>
<path d="M172.613 132.457H163.061L167.837 124.571L172.613 116.682L177.385 124.571L182.161 132.457H172.613Z" fill="#E72166"/>
<path d="M163.06 116.682H172.612L167.836 124.571L163.06 132.457L158.288 124.571L153.512 116.682H163.06Z" fill="#E83165"/>
<path d="M163.06 116.704H153.512L158.288 108.819L163.06 100.933L167.836 108.819L172.612 116.704H163.06Z" fill="#EA4D63"/>
<path d="M153.512 100.933H163.06L158.288 108.819L153.512 116.704L148.736 108.819L143.963 100.933H153.512Z" fill="#EC6263"/>
<path d="M153.512 100.957H143.963L148.736 93.071L153.512 85.1816L158.288 93.071L163.06 100.957H153.512Z" fill="#EE735F"/>
<path d="M143.963 85.1816H153.512L148.736 93.071L143.963 100.957L139.187 93.071L134.411 85.1816H143.963Z" fill="#F0825B"/>
<path d="M143.963 85.2047H134.411L139.187 77.3192L143.963 69.4336L148.736 77.3192L153.512 85.2047H143.963Z" fill="#F39356"/>
<path d="M134.411 69.4336H143.963L139.187 77.3192L134.411 85.2047L129.638 77.3192L124.862 69.4336H134.411Z" fill="#F6A24B"/>
<path d="M134.411 69.4571H124.862L129.638 61.5715L134.411 53.6821L139.187 61.5715L143.963 69.4571H134.411Z" fill="#F7B13C"/>
<path d="M115.314 69.4571H105.766L110.538 61.5715L115.314 53.6821L120.087 61.5715L124.863 69.4571H115.314Z" fill="#F7B13C"/>
<path d="M124.864 53.6818H115.315L120.088 45.7962L124.864 37.9106L129.64 45.7962L134.412 53.6818H124.864Z" fill="#F2CC37"/>
<path d="M124.864 53.6821H134.412L129.64 61.5715L124.864 69.4571L120.088 61.5715L115.315 53.6821H124.864Z" fill="#EFBE43"/>
<path d="M105.766 85.2047H96.2139L100.99 77.3192L105.766 69.4336L110.538 77.3192L115.314 85.2047H105.766Z" fill="#F39356"/>
<path d="M115.314 69.4336H124.863L120.087 77.3192L115.314 85.2047L110.538 77.3192L105.766 69.4336H115.314Z" fill="#F6A24B"/>
<path d="M96.2139 100.957H86.6655L91.4416 93.071L96.2139 85.1816L100.99 93.071L105.766 100.957H96.2139Z" fill="#EE735F"/>
<path d="M105.766 85.1816H115.314L110.538 93.071L105.766 100.957L100.99 93.071L96.2139 85.1816H105.766Z" fill="#F0825B"/>
<path d="M86.665 116.704H77.1167L81.8889 108.819L86.665 100.933L91.4411 108.819L96.2134 116.704H86.665Z" fill="#EA4D63"/>
<path d="M96.2139 100.933H105.766L100.99 108.819L96.2139 116.704L91.4416 108.819L86.6655 100.933H96.2139Z" fill="#EC6263"/>
<path d="M77.1176 132.457H67.5654L72.3415 124.571L77.1176 116.682L81.8898 124.571L86.6659 132.457H77.1176Z" fill="#E72166"/>
<path d="M86.665 116.682H96.2134L91.4411 124.571L86.665 132.457L81.8889 124.571L77.1167 116.682H86.665Z" fill="#E83165"/>
<path d="M115.323 132.457H105.771L110.547 124.571L115.323 116.682L120.095 124.571L124.871 132.457H115.323Z" fill="#E72166"/>
<path d="M134.407 132.457H124.855L129.631 124.571L134.407 116.682L139.179 124.571L143.955 132.457H134.407Z" fill="#E83165"/>
<path d="M64.0686 180.961C65.7203 183.884 68.2106 186.243 71.2173 187.735C74.3014 189.304 77.8777 190.089 81.9462 190.089C87.5119 190.089 91.9906 188.935 95.3823 186.627V177.684C93.6797 178.982 91.7569 179.962 89.7064 180.576C87.4617 181.213 85.1366 181.52 82.8037 181.488C79.1659 181.485 76.3382 180.521 74.3206 178.595C72.303 176.669 71.2942 174.01 71.2942 170.617C71.2942 167.214 72.2928 164.559 74.2899 162.651C76.2869 160.743 79.1236 159.789 82.7999 159.789C85.1025 159.755 87.3986 160.042 89.6218 160.643C91.5599 161.193 93.37 162.121 94.9478 163.374V154.381C93.1517 153.233 91.1817 152.383 89.1142 151.865C86.7681 151.296 84.3601 151.022 81.9462 151.05C77.87 151.05 74.2937 151.843 71.2173 153.431C68.213 154.939 65.7247 157.306 64.0686 160.232C62.3919 163.181 61.5536 166.637 61.5536 170.602C61.5536 174.567 62.3919 178.02 64.0686 180.961Z" fill="#341E4C"/>
<path fill-rule="evenodd" clip-rule="evenodd" d="M40.7342 151.865H31.4319L16.4346 189.289H26.1752L29.1746 181.577H42.9684L45.9794 189.289H55.6585L40.7342 151.865ZM36.0888 161.717L40.638 174.295H31.4742L36.0888 161.717Z" fill="#341E4C"/>
<path d="M113.687 159.847H103.142V151.865H133.756V159.847H123.158V189.297H113.687V159.847Z" fill="#341E4C"/>
<path d="M152.33 151.865H142.855V189.289H152.33V151.865Z" fill="#341E4C"/>
<path d="M163.301 151.865H172.399L183.213 175.045L194.096 151.865H203.14V189.289H194.296V170.495L185.359 189.289H181.071L172.176 170.495V189.289H163.301V151.865Z" fill="#341E4C"/>
<path d="M223.564 151.865H214.092V189.289H223.564V151.865Z" fill="#341E4C"/>
</svg>
