<svg width="22" height="22" viewBox="0 0 22 22" fill="none" xmlns="http://www.w3.org/2000/svg">
<path d="M7 11H7.00889M11 11H11.0089M15 11H15.0089M11 19C15.4183 19 19 15.4183 19 11C19 6.58172 15.4183 3 11 3C6.58172 3 3 6.58172 3 11C3 12.0641 3.20777 13.0797 3.58494 14.0085C3.65713 14.1862 3.69323 14.2751 3.70933 14.3469C3.72508 14.4172 3.73084 14.4692 3.73085 14.5412C3.73086 14.6148 3.71749 14.695 3.69076 14.8554L3.16367 18.018C3.10847 18.3492 3.08087 18.5148 3.13223 18.6345C3.17718 18.7393 3.2607 18.8228 3.3655 18.8678C3.48524 18.9191 3.65083 18.8915 3.98201 18.8363L7.14458 18.3092C7.30497 18.2825 7.38516 18.2691 7.45878 18.2691C7.5308 18.2692 7.58281 18.2749 7.65308 18.2907C7.72493 18.3068 7.8138 18.3429 7.99155 18.4151C8.92027 18.7922 9.93587 19 11 19ZM7.44444 11C7.44444 11.2455 7.24546 11.4444 7 11.4444C6.75454 11.4444 6.55556 11.2455 6.55556 11C6.55556 10.7545 6.75454 10.5556 7 10.5556C7.24546 10.5556 7.44444 10.7545 7.44444 11ZM11.4444 11C11.4444 11.2455 11.2455 11.4444 11 11.4444C10.7545 11.4444 10.5556 11.2455 10.5556 11C10.5556 10.7545 10.7545 10.5556 11 10.5556C11.2455 10.5556 11.4444 10.7545 11.4444 11ZM15.4444 11C15.4444 11.2455 15.2455 11.4444 15 11.4444C14.7545 11.4444 14.5556 11.2455 14.5556 11C14.5556 10.7545 14.7545 10.5556 15 10.5556C15.2455 10.5556 15.4444 10.7545 15.4444 11Z" stroke="#16416C" stroke-width="1.6" stroke-linecap="round" stroke-linejoin="round"/>
</svg>
