<svg width="1479" height="440" viewBox="0 0 1479 440" fill="none" xmlns="http://www.w3.org/2000/svg">
<path fill-rule="evenodd" clip-rule="evenodd" d="M459.556 220.161C459.556 291.751 420.069 354.352 361.641 387.097C368.062 387.739 374.161 388.06 380.582 388.06C473.36 388.06 548.803 312.939 548.803 220.161C548.803 127.382 473.36 51.9398 380.582 51.9398C374.161 51.9398 368.062 52.2609 361.641 53.2239C420.069 85.9692 459.556 148.249 459.556 220.161Z" fill="url(#paint0_linear_149_10)"/>
<path fill-rule="evenodd" clip-rule="evenodd" d="M100 220.161C100 312.939 175.122 388.06 267.9 388.06C360.678 388.06 436.121 312.939 436.121 220.161C436.121 127.382 360.678 51.9398 267.9 51.9398C175.122 51.9398 100 127.382 100 220.161Z" fill="url(#paint1_linear_149_10)"/>
<path d="M727.26 308.123C780.551 308.123 819.717 270.884 819.717 219.84C819.717 169.117 780.551 131.877 727.26 131.877C673.969 131.877 634.803 169.117 634.803 219.84C634.803 270.563 673.969 308.123 727.26 308.123ZM727.26 280.194C692.589 280.194 666.906 254.832 666.906 219.84C666.906 184.847 692.589 159.807 727.26 159.807C761.932 159.807 787.614 184.847 787.614 219.84C787.614 254.832 761.932 280.194 727.26 280.194ZM971.245 134.124L913.459 266.389L856.315 134.124H821.965L896.765 305.555H928.226L1003.03 134.124H971.245ZM1097.73 308.123C1150.7 308.123 1189.87 270.884 1189.87 219.84C1189.87 169.117 1150.7 131.877 1097.73 131.877C1044.44 131.877 1005.27 169.117 1005.27 219.84C1005.27 270.563 1044.44 308.123 1097.73 308.123ZM1097.73 280.194C1063.06 280.194 1037.38 254.832 1037.38 219.84C1037.38 184.847 1063.06 159.807 1097.73 159.807C1132.08 159.807 1157.76 184.847 1157.76 219.84C1157.76 254.832 1132.08 280.194 1097.73 280.194ZM1341.39 305.555H1378.63L1302.23 210.851L1374.14 134.124H1338.51L1253.75 222.087V134.124H1221.97V305.555H1253.75V261.895L1281.04 233.965L1341.39 305.555Z" fill="#694D98"/>
<defs>
<linearGradient id="paint0_linear_149_10" x1="525.264" y1="258.53" x2="378.074" y2="237.301" gradientUnits="userSpaceOnUse">
<stop stop-color="#B2A5CD"/>
<stop offset="1" stop-color="#694D98"/>
</linearGradient>
<linearGradient id="paint1_linear_149_10" x1="393.847" y1="258.53" x2="140.98" y2="193.03" gradientUnits="userSpaceOnUse">
<stop stop-color="#B2A5CD"/>
<stop offset="1" stop-color="#694D98"/>
</linearGradient>
</defs>
</svg>
