<svg width="22" height="22" viewBox="0 0 22 22" fill="none" xmlns="http://www.w3.org/2000/svg">
<path fill-rule="evenodd" clip-rule="evenodd" d="M9.96875 4.125V5.15625H2.0625C1.78887 5.15625 1.52659 5.26487 1.33341 5.45841C1.13987 5.65159 1.03125 5.91387 1.03125 6.1875C1.03125 7.04997 1.03125 9.13722 1.03125 10.8281C1.03125 11.0179 1.18525 11.1719 1.375 11.1719C1.56475 11.1719 1.71875 11.0179 1.71875 10.8281V6.1875C1.71875 6.09641 1.75484 6.00875 1.81947 5.94447C1.88375 5.87984 1.97141 5.84375 2.0625 5.84375H19.9375C20.0286 5.84375 20.1163 5.87984 20.1805 5.94447C20.2452 6.00875 20.2812 6.09641 20.2812 6.1875V14.7812H15.2927C15.3385 13.6245 14.9205 12.453 14.0384 11.571C13.562 11.0945 13.001 10.7535 12.4039 10.548C13.0106 10.1107 13.4062 9.39812 13.4062 8.59375C13.4062 7.26584 12.3279 6.1875 11 6.1875C9.67209 6.1875 8.59375 7.26584 8.59375 8.59375C8.59375 9.39812 8.98941 10.1107 9.59613 10.548C8.99903 10.7535 8.43803 11.0945 7.96159 11.571C7.07953 12.453 6.66153 13.6245 6.70725 14.7812H1.71875V12.0312C1.71875 11.8415 1.56475 11.6875 1.375 11.6875C1.18525 11.6875 1.03125 11.8415 1.03125 12.0312V16.5C1.03125 16.7736 1.13987 17.0359 1.33341 17.2291C1.52659 17.4226 1.78887 17.5312 2.0625 17.5312H3.4375C3.62725 17.5312 3.78125 17.3772 3.78125 17.1875C3.78125 16.9978 3.62725 16.8438 3.4375 16.8438H2.0625C1.97141 16.8438 1.88375 16.8077 1.81947 16.743C1.75484 16.6788 1.71875 16.5911 1.71875 16.5V15.4688H20.2812V16.5C20.2812 16.5911 20.2452 16.6788 20.1805 16.743C20.1163 16.8077 20.0286 16.8438 19.9375 16.8438H4.8125C4.62275 16.8438 4.46875 16.9978 4.46875 17.1875C4.46875 17.3772 4.62275 17.5312 4.8125 17.5312H9.14581C9.09081 18.4532 8.85191 19.6443 7.97122 20.2812H7.39062C7.20088 20.2812 7.04688 20.4353 7.04688 20.625C7.04688 20.8147 7.20088 20.9688 7.39062 20.9688H14.6094C14.7991 20.9688 14.9531 20.8147 14.9531 20.625C14.9531 20.4353 14.7991 20.2812 14.6094 20.2812H14.0288C13.1481 19.6439 12.9092 18.4532 12.8542 17.5312H19.9375C20.2111 17.5312 20.4734 17.4226 20.6666 17.2291C20.8601 17.0359 20.9688 16.7736 20.9688 16.5C20.9688 14.4279 20.9688 8.25962 20.9688 6.1875C20.9688 5.91387 20.8601 5.65159 20.6666 5.45841C20.4734 5.26487 20.2111 5.15625 19.9375 5.15625H12.0312V4.125H13.0625C13.6321 4.125 14.0938 3.66334 14.0938 3.09375V2.0625C14.0938 1.49291 13.6321 1.03125 13.0625 1.03125H8.9375C8.36791 1.03125 7.90625 1.49291 7.90625 2.0625C7.90625 2.38597 7.90625 2.77028 7.90625 3.09375C7.90625 3.66334 8.36791 4.125 8.9375 4.125H9.96875ZM12.1667 17.5312H9.83331C9.78003 18.4013 9.56347 19.4838 8.94472 20.2812H13.0553C12.4365 19.4838 12.22 18.4009 12.1667 17.5312ZM9.42563 11.3606C9.07225 11.5318 8.74088 11.7642 8.44766 12.057C7.70344 12.8013 7.35281 13.7909 7.39475 14.7665C7.39509 14.7713 7.39509 14.7764 7.39509 14.7812H14.6049C14.6049 14.7764 14.6049 14.7713 14.6052 14.7665C14.6472 13.7909 14.2966 12.8013 13.5523 12.057C13.2591 11.7642 12.9278 11.5318 12.5744 11.3606C12.5091 11.6473 12.365 11.9192 12.1419 12.1419C11.5118 12.7724 10.4882 12.7724 9.85806 12.1419C9.63497 11.9192 9.49094 11.6473 9.42563 11.3606ZM2.40625 12.375V13.0625C2.40625 13.2522 2.56025 13.4062 2.75 13.4062C2.93975 13.4062 3.09375 13.2522 3.09375 13.0625V12.375C3.09375 12.1853 2.93975 12.0312 2.75 12.0312C2.56025 12.0312 2.40625 12.1853 2.40625 12.375ZM11.9195 11.1189C11.3176 10.9612 10.6824 10.9612 10.0805 11.1189C10.1056 11.3156 10.1936 11.5053 10.3441 11.6559C10.7061 12.0178 11.2939 12.0178 11.6559 11.6559C11.8064 11.5053 11.8944 11.3156 11.9195 11.1189ZM3.09375 11.3438V6.875C3.09375 6.68525 2.93975 6.53125 2.75 6.53125C2.56025 6.53125 2.40625 6.68525 2.40625 6.875V11.3438C2.40625 11.5335 2.56025 11.6875 2.75 11.6875C2.93975 11.6875 3.09375 11.5335 3.09375 11.3438ZM11 6.875C11.9487 6.875 12.7188 7.645 12.7188 8.59375C12.7188 9.5425 11.9487 10.3125 11 10.3125C10.0513 10.3125 9.28125 9.5425 9.28125 8.59375C9.28125 7.645 10.0513 6.875 11 6.875ZM10.6562 4.125H11.155H11.3438V5.15625H10.6562V4.125ZM13.4062 2.0625V3.09375C13.4062 3.2835 13.2522 3.4375 13.0625 3.4375H8.9375C8.74775 3.4375 8.59375 3.2835 8.59375 3.09375V2.0625C8.59375 1.87275 8.74775 1.71875 8.9375 1.71875H13.0625C13.2522 1.71875 13.4062 1.87275 13.4062 2.0625ZM12.375 2.23438C12.5647 2.23438 12.7188 2.38838 12.7188 2.57812C12.7188 2.76787 12.5647 2.92188 12.375 2.92188C12.1853 2.92188 12.0312 2.76787 12.0312 2.57812C12.0312 2.38838 12.1853 2.23438 12.375 2.23438ZM9.625 2.23438C9.81475 2.23438 9.96875 2.38838 9.96875 2.57812C9.96875 2.76787 9.81475 2.92188 9.625 2.92188C9.43525 2.92188 9.28125 2.76787 9.28125 2.57812C9.28125 2.38838 9.43525 2.23438 9.625 2.23438Z" fill="white"/>
</svg>
