<svg width="24" height="24" viewBox="0 0 24 24" fill="none" xmlns="http://www.w3.org/2000/svg">
<g clip-path="url(#clip0_19_6946)">
<path d="M2.57171 3.42857C2.11705 3.42857 1.68102 3.60918 1.35952 3.93067C1.03803 4.25216 0.857422 4.68819 0.857422 5.14285V21.4286C0.857422 21.8832 1.03803 22.3193 1.35952 22.6407C1.68102 22.9622 2.11705 23.1429 2.57171 23.1429H21.4288C21.8835 23.1429 22.3195 22.9622 22.641 22.6407C22.9625 22.3193 23.1431 21.8832 23.1431 21.4286V5.14285C23.1431 4.68819 22.9625 4.25216 22.641 3.93067C22.3195 3.60918 21.8835 3.42857 21.4288 3.42857H18.0003" stroke="#2859C5" stroke-linecap="round" stroke-linejoin="round"/>
<path d="M6 0.85714V6" stroke="#2859C5" stroke-linecap="round" stroke-linejoin="round"/>
<path d="M18 0.85714V6" stroke="#2859C5" stroke-linecap="round" stroke-linejoin="round"/>
<path d="M6 3.42857H14.5714" stroke="#2859C5" stroke-linecap="round" stroke-linejoin="round"/>
<path d="M16.2863 13.7143H7.71484" stroke="#2859C5" stroke-linecap="round" stroke-linejoin="round"/>
<path d="M12 9.42857V18" stroke="#2859C5" stroke-linecap="round" stroke-linejoin="round"/>
</g>
<defs>
<clipPath id="clip0_19_6946">
<rect width="24" height="24" fill="white"/>
</clipPath>
</defs>
</svg>
