<svg width="24" height="24" viewBox="0 0 24 24" fill="none" xmlns="http://www.w3.org/2000/svg">
<g clip-path="url(#clip0_1959_21477)">
<path d="M5.64062 7.8562H14.6313V9.06558H5.64062V7.8562Z" fill="white"/>
<path d="M5.64062 12.7312H14.6313V13.9406H5.64062V12.7312Z" fill="white"/>
<path d="M3.85312 21.8531C2.91562 21.8531 2.14687 21.0844 2.14687 20.1469V4.7625C2.14687 3.825 2.91562 3.05625 3.85312 3.05625H5.55C5.78437 3.6 6.31875 3.98438 6.95625 3.98438H13.3312C13.9594 3.98438 14.5031 3.6 14.7375 3.05625H16.4344C17.3719 3.05625 18.1406 3.825 18.1406 4.7625V13.2281L19.35 13.7906V4.7625C19.35 3.15 18.0469 1.84688 16.4344 1.84688H14.7187C14.4844 1.3125 13.95 0.9375 13.3312 0.9375H6.95625C6.3375 0.9375 5.80312 1.3125 5.55937 1.84688H3.85312C2.24062 1.84688 0.9375 3.15 0.9375 4.7625V20.1469C0.9375 21.7594 2.24062 23.0625 3.85312 23.0625H11.6344L10.6875 21.8531H3.85312Z" fill="white"/>
<path d="M14.1172 19.8469L11.3328 16.95L10.0391 18.075L14.4266 22.6125L23.0609 11.175L14.1172 19.8469Z" fill="white"/>
</g>
<defs>
<clipPath id="clip0_1959_21477">
<rect width="24" height="24" fill="white"/>
</clipPath>
</defs>
</svg>
