<svg width="24" height="24" viewBox="0 0 24 24" fill="none" xmlns="http://www.w3.org/2000/svg">
<rect width="24" height="24" rx="12" fill="#2F67AD"/>
<g clip-path="url(#clip0_1444_23216)">
<path d="M11.9258 18.2018L8.92578 18.4618L9.18578 15.4618L15.4258 9.26181C15.519 9.16657 15.6302 9.09089 15.753 9.03922C15.8757 8.98755 16.0076 8.96094 16.1408 8.96094C16.274 8.96094 16.4059 8.98755 16.5287 9.03922C16.6515 9.09089 16.7627 9.16657 16.8558 9.26181L18.1258 10.5418C18.2195 10.6348 18.2939 10.7454 18.3447 10.8672C18.3955 10.9891 18.4216 11.1198 18.4216 11.2518C18.4216 11.3838 18.3955 11.5145 18.3447 11.6364C18.2939 11.7582 18.2195 11.8688 18.1258 11.9618L11.9258 18.2018Z" stroke="white" stroke-linecap="round" stroke-linejoin="round"/>
<path d="M5.84132 8.97106C5.49039 8.91 5.49039 8.40623 5.84132 8.34518C7.11268 8.12399 8.12386 7.15563 8.39982 5.89503L8.42097 5.7984C8.49689 5.45157 8.99074 5.44941 9.06969 5.79557L9.09537 5.90818C9.38154 7.16283 10.393 8.12301 11.6608 8.34358C12.0136 8.40494 12.0136 8.91129 11.6608 8.97265C10.393 9.19322 9.38154 10.1534 9.09537 11.4081L9.06969 11.5207C8.99074 11.8668 8.49689 11.8647 8.42097 11.5178L8.39982 11.4212C8.12386 10.1606 7.11268 9.19224 5.84132 8.97106Z" stroke="white" stroke-linecap="round" stroke-linejoin="round"/>
</g>
<defs>
<clipPath id="clip0_1444_23216">
<rect width="14" height="14" fill="white" transform="translate(5 5)"/>
</clipPath>
</defs>
</svg>
