<svg width="42" height="42" viewBox="0 0 42 42" fill="none" xmlns="http://www.w3.org/2000/svg">
<circle cx="21" cy="21" r="21" fill="#EDF5FF"/>
<g clip-path="url(#clip0_113_11724)">
<path d="M26.8915 18.6428C27.9334 18.6428 28.9326 18.2289 29.6694 17.4921C30.4061 16.7554 30.82 15.7561 30.82 14.7142C30.82 13.6723 30.4061 12.673 29.6694 11.9363C28.9326 11.1995 27.9334 10.7856 26.8915 10.7856C25.8495 10.7856 24.8503 11.1995 24.1135 11.9363C23.3768 12.673 22.9629 13.6723 22.9629 14.7142C22.9629 15.7561 23.3768 16.7554 24.1135 17.4921C24.8503 18.2289 25.8495 18.6428 26.8915 18.6428Z" stroke="#2F67AD" stroke-linecap="round" stroke-linejoin="round"/>
<path d="M25.6084 22.5712V24.9817C25.6084 25.5946 25.852 26.1854 26.2873 26.6192C26.721 27.0544 27.4564 27.298 28.0709 27.298H10.7852C11.3996 27.298 12.135 27.0544 12.5687 26.6192C12.7841 26.4044 12.955 26.1491 13.0715 25.8681C13.188 25.5871 13.2478 25.2859 13.2476 24.9817V19.323C13.2476 17.6839 13.8987 16.1118 15.0578 14.9528C16.2168 13.7937 17.7889 13.1426 19.428 13.1426" stroke="#2F67AD" stroke-linecap="round" stroke-linejoin="round"/>
<path d="M17.8574 31.2144H21.0003" stroke="#2F67AD" stroke-linecap="round" stroke-linejoin="round"/>
</g>
<defs>
<clipPath id="clip0_113_11724">
<rect width="22" height="22" fill="white" transform="translate(10 10)"/>
</clipPath>
</defs>
</svg>
