<svg width="40" height="40" viewBox="0 0 40 40" fill="none" xmlns="http://www.w3.org/2000/svg">
<circle cx="20" cy="20" r="20" fill="#EDF5FF"/>
<g clip-path="url(#clip0_113_11732)">
<path d="M20.5477 31.8968C20.1912 32.0344 19.7964 32.0344 19.44 31.8968C16.6606 30.8295 14.2704 28.9442 12.585 26.49C10.8995 24.0357 9.99821 21.128 10 18.1507V13.5369C10.0004 13.1294 10.1625 12.7387 10.4506 12.4506C10.7387 12.1625 11.1294 12.0004 11.5369 12H28.4507C28.8587 12 29.25 12.1621 29.5386 12.4506C29.8271 12.7391 29.9892 13.1304 29.9892 13.5385V18.1507C29.9908 21.1282 29.0893 24.0361 27.4036 26.4903C25.7179 28.9446 23.3273 30.8298 20.5477 31.8968Z" stroke="#2F67AD" stroke-linecap="round" stroke-linejoin="round"/>
<path d="M21.5331 15.8584H18.4562V18.9353H15.3809V22.0091H18.4578V25.0861H21.5316V22.0091H24.6085V18.9338H21.5316L21.5331 15.8584Z" stroke="#2F67AD" stroke-linecap="round" stroke-linejoin="round"/>
</g>
<defs>
<clipPath id="clip0_113_11732">
<rect width="22" height="22" fill="white" transform="translate(9 11)"/>
</clipPath>
</defs>
</svg>
