<svg width="13" height="13" viewBox="0 0 13 13" fill="none" xmlns="http://www.w3.org/2000/svg">
<g clip-path="url(#clip0_113_11701)">
<path d="M6.15932 12.1097C7.63695 12.1097 9.05407 11.5227 10.0989 10.4778C11.1438 9.43298 11.7307 8.01586 11.7307 6.53823C11.7307 5.06059 11.1438 3.64348 10.0989 2.59863C9.05407 1.55378 7.63695 0.966797 6.15932 0.966797C4.68168 0.966797 3.26457 1.55378 2.21972 2.59863C1.17488 3.64348 0.587891 5.06059 0.587891 6.53823C0.587891 8.01586 1.17488 9.43298 2.21972 10.4778C3.26457 11.5227 4.68168 12.1097 6.15932 12.1097Z" stroke="#888B92" stroke-linecap="round" stroke-linejoin="round"/>
<path d="M6.16016 4.39551V6.53837L8.3373 9.07551" stroke="#888B92" stroke-linecap="round" stroke-linejoin="round"/>
</g>
<defs>
<clipPath id="clip0_113_11701">
<rect width="12" height="12" fill="white" transform="translate(0.160156 0.538086)"/>
</clipPath>
</defs>
</svg>
