<svg width="23" height="22" viewBox="0 0 23 22" fill="none" xmlns="http://www.w3.org/2000/svg">
<path d="M19.0352 7.44915H11.3243H3.6133C2.99744 7.44915 2.43739 7.70127 2.03063 8.10804C1.62387 8.51412 1.37175 9.07485 1.37175 9.6907V16.1242C1.37175 16.7401 1.62454 17.3002 2.03063 17.7069C2.43672 18.113 2.99744 18.3658 3.6133 18.3658H7.87992C8.23289 18.3658 8.56435 18.4418 8.86555 18.5877C9.16743 18.7349 9.43233 18.9494 9.65084 19.2277L10.3622 20.134C10.4845 20.2893 10.6271 20.407 10.7857 20.4843C10.9451 20.5616 11.1266 20.6013 11.3249 20.6013C11.5233 20.6013 11.7048 20.5616 11.8642 20.4843C12.0222 20.407 12.1654 20.29 12.2877 20.134L12.9991 19.2277C13.2169 18.9494 13.4825 18.7349 13.7843 18.5877C14.0855 18.4411 14.417 18.3658 14.77 18.3658H19.0366C19.6524 18.3658 20.2125 18.1137 20.6193 17.7069C21.0253 17.3008 21.2781 16.7408 21.2781 16.1242V9.6907C21.2781 9.07485 21.026 8.5148 20.6193 8.10804C20.2132 7.70195 19.6524 7.44915 19.0366 7.44915H19.0352ZM11.5004 13.6218C11.7048 13.4248 12.0295 13.4316 12.2265 13.6359C12.4229 13.8403 12.4168 14.1651 12.2124 14.3621L10.9874 15.5393L11.4762 15.6906C11.7472 15.774 11.8991 16.061 11.8157 16.332C11.7324 16.6029 11.4453 16.7549 11.1743 16.6722L9.86329 16.2668C9.77858 16.2426 9.69925 16.1969 9.63403 16.129C9.43704 15.9246 9.44376 15.5998 9.64815 15.4028L11.5011 13.6225L11.5004 13.6218ZM11.3249 3.90058C11.7176 3.90058 12.0726 3.74124 12.3294 3.48441C12.5862 3.22758 12.7456 2.87192 12.7456 2.47995C12.7456 2.0873 12.5862 1.73231 12.3294 1.47548C12.0726 1.21798 11.7169 1.05931 11.3249 1.05931C10.9323 1.05931 10.5773 1.21798 10.3205 1.47548C10.0637 1.73231 9.90431 2.08798 9.90431 2.47995C9.90431 2.87192 10.0637 3.22758 10.3205 3.48441C10.5773 3.74124 10.933 3.90058 11.3249 3.90058ZM13.0575 4.21254C12.7301 4.53997 12.3099 4.77529 11.84 4.87614V6.41981H19.0359C19.9362 6.41981 20.7537 6.78758 21.3461 7.3799C21.9384 7.97222 22.3061 8.79045 22.3061 9.69003V16.1236C22.3061 17.0238 21.9384 17.8414 21.3461 18.4337C20.7537 19.026 19.9355 19.3938 19.0359 19.3938H14.7693C14.571 19.3938 14.3894 19.4335 14.2301 19.5108C14.0721 19.5881 13.9289 19.7051 13.8072 19.8611L13.0959 20.7674C12.8774 21.0457 12.6125 21.2602 12.3106 21.4074C12.0094 21.5533 11.6779 21.6293 11.3249 21.6293C10.972 21.6293 10.6405 21.5533 10.3393 21.4074C10.0374 21.2602 9.77253 21.0457 9.55402 20.7674L8.8427 19.8611C8.721 19.7058 8.5778 19.5881 8.4198 19.5108C8.26046 19.4335 8.07893 19.3938 7.88059 19.3938H3.61397C2.71372 19.3938 1.89616 19.026 1.30384 18.4337C0.711515 17.8414 0.34375 17.0232 0.34375 16.1236V9.69003C0.34375 8.78978 0.711515 7.97222 1.30384 7.3799C1.89616 6.78758 2.71439 6.41981 3.61397 6.41981H10.8099V4.87614C10.34 4.77529 9.91977 4.53997 9.59235 4.21254C9.14928 3.76881 8.8743 3.15631 8.8743 2.47995C8.8743 1.80291 9.14861 1.19041 9.59235 0.747347C10.0354 0.303608 10.6486 0.0292969 11.3249 0.0292969C12.0013 0.0292969 12.6145 0.303608 13.0575 0.747347C13.5006 1.19041 13.7756 1.80291 13.7756 2.47995C13.7756 3.15631 13.5013 3.76881 13.0575 4.21254ZM16.3446 14.3419C15.687 14.3419 15.0913 14.075 14.6597 13.644C14.2287 13.213 13.9618 12.6174 13.9618 11.9592C13.9618 11.3016 14.2287 10.7059 14.6597 10.2743C15.0907 9.84332 15.6864 9.57641 16.3446 9.57641C17.0021 9.57641 17.5978 9.84265 18.0294 10.2743C18.4604 10.7053 18.7273 11.3009 18.7273 11.9592C18.7273 12.6167 18.4611 13.2124 18.0294 13.644C17.5985 14.075 17.0028 14.3419 16.3446 14.3419ZM15.3878 12.9159C15.6326 13.1606 15.9708 13.3119 16.3446 13.3119C16.7184 13.3119 17.0566 13.1606 17.3013 12.9159C17.546 12.6712 17.6973 12.333 17.6973 11.9592C17.6973 11.5853 17.546 11.2472 17.3013 11.0024C17.0566 10.7577 16.7184 10.6064 16.3446 10.6064C15.9708 10.6064 15.6326 10.7577 15.3878 11.0024C15.1431 11.2472 14.9918 11.5853 14.9918 11.9592C14.9918 12.333 15.1431 12.6712 15.3878 12.9159ZM6.30599 13.3119C6.6798 13.3119 7.01799 13.1606 7.26272 12.9159C7.50744 12.6712 7.65872 12.333 7.65872 11.9592C7.65872 11.5853 7.50744 11.2472 7.26272 11.0024C7.01799 10.7577 6.6798 10.6064 6.30599 10.6064C5.93217 10.6064 5.59399 10.7577 5.34926 11.0024C5.10453 11.2472 4.95326 11.5853 4.95326 11.9592C4.95326 12.333 5.10453 12.6712 5.34926 12.9159C5.59399 13.1606 5.93217 13.3119 6.30599 13.3119ZM7.99085 13.6433C7.55989 14.0743 6.9642 14.3412 6.30599 14.3412C5.64845 14.3412 5.05276 14.0743 4.62112 13.6433C4.19016 13.2124 3.92324 12.6167 3.92324 11.9585C3.92324 11.3009 4.18949 10.7053 4.62112 10.2736C5.05209 9.84265 5.64778 9.57574 6.30599 9.57574C6.96353 9.57574 7.55921 9.84198 7.99085 10.2736C8.42182 10.7046 8.68873 11.3003 8.68873 11.9585C8.68873 12.616 8.42182 13.2117 7.99085 13.6433Z" fill="white"/>
</svg>
