<svg width="22" height="22" viewBox="0 0 22 22" fill="none" xmlns="http://www.w3.org/2000/svg">
<path d="M15.8571 14.7304C16.3761 14.7802 16.8995 14.7146 17.3901 14.5384C17.8807 14.3621 18.3262 14.0796 18.6948 13.711C19.0635 13.3424 19.3459 12.8969 19.5222 12.4063C19.6985 11.9157 19.7143 10.8733 19.7143 10.8733C19.7143 10.8733 19.6985 9.83091 19.5222 9.34032C19.3459 8.84973 19.0635 8.4042 18.6948 8.0356C18.3262 7.66699 17.8807 7.38445 17.3901 7.20821C16.8995 7.03197 16.3761 6.96638 15.8571 7.01615C12.3214 7.01615 10.3929 14.7304 6.85714 14.7304C6.33824 14.7802 5.81475 14.7146 5.32417 14.5384C4.83358 14.3621 4.38803 14.0796 4.01943 13.711C3.65083 13.3424 3.36829 12.8969 3.19205 12.4063C3.01581 11.9157 3 10.8733 3 10.8733C3 10.8733 3.01581 9.83091 3.19205 9.34032C3.36829 8.84973 3.65083 8.4042 4.01943 8.0356C4.38803 7.66699 4.83358 7.38445 5.32417 7.20821C5.81475 7.03197 6.33824 6.96638 6.85714 7.01615C10.3929 7.01615 12.3214 14.7304 15.8571 14.7304Z" stroke="white" stroke-linecap="round" stroke-linejoin="round"/>
</svg>
