<svg width="24" height="24" viewBox="0 0 24 24" fill="none" xmlns="http://www.w3.org/2000/svg">
<path d="M19.6939 16.1539C20.016 15.848 20.2724 15.4798 20.4478 15.0716C20.623 14.6635 20.7135 14.2239 20.7135 13.7797C20.7135 13.3354 20.623 12.8959 20.4478 12.4877C20.2724 12.0795 20.016 11.7113 19.6939 11.4054C19.0346 10.7796 18.1601 10.4307 17.251 10.4307C16.3419 10.4307 15.4675 10.7796 14.8082 11.4054L12.3567 13.8568L9.9053 11.4054C9.24592 10.7796 8.37151 10.4307 7.46245 10.4307C6.55336 10.4307 5.67895 10.7796 5.01959 11.4054C4.69746 11.7113 4.44097 12.0795 4.26568 12.4877C4.09039 12.8959 4 13.3354 4 13.7797C4 14.2239 4.09039 14.6635 4.26568 15.0716C4.44097 15.4798 4.69746 15.848 5.01959 16.1539L12.3567 23.2853L19.6939 16.1539Z" stroke="white" stroke-linecap="round" stroke-linejoin="round"/>
<path d="M12.3563 7.85714C14.2499 7.85714 15.7849 6.32212 15.7849 4.42857C15.7849 2.53502 14.2499 1 12.3563 1C10.4628 1 8.92773 2.53502 8.92773 4.42857C8.92773 6.32212 10.4628 7.85714 12.3563 7.85714Z" stroke="white" stroke-linecap="round" stroke-linejoin="round"/>
</svg>
