<svg width="25" height="25" viewBox="0 0 25 25" fill="none" xmlns="http://www.w3.org/2000/svg">
<g clip-path="url(#clip0_1181_29946)">
<path fill-rule="evenodd" clip-rule="evenodd" d="M20.5 11H19.5V18.6667L20 19.3333L20.5 18.6667V11ZM21.5 19L20 21L18.5 19V10H21.5V19Z" fill="white"/>
<path fill-rule="evenodd" clip-rule="evenodd" d="M20.5 7.5H19.5V8.5H20.5V7.5ZM19.5 6.5H20.5C21.0523 6.5 21.5 6.9477 21.5 7.5V9.5H18.5V7.5C18.5 6.9477 18.9477 6.5 19.5 6.5Z" fill="white"/>
<path d="M6.5 13C6.22385 13 6 13.2238 6 13.5C6 13.7761 6.22385 14 6.5 14H13.5C13.7761 14 14 13.7761 14 13.5C14 13.2238 13.7761 13 13.5 13H6.5Z" fill="white"/>
<path d="M6 16C6 15.7238 6.22385 15.5 6.5 15.5H13.5C13.7761 15.5 14 15.7238 14 16C14 16.2761 13.7761 16.5 13.5 16.5H6.5C6.22385 16.5 6 16.2761 6 16Z" fill="white"/>
<path d="M6.5 18C6.22385 18 6 18.2238 6 18.5C6 18.7761 6.22385 19 6.5 19H11.5C11.7761 19 12 18.7761 12 18.5C12 18.2238 11.7761 18 11.5 18H6.5Z" fill="white"/>
<path d="M8 7.49951C8.27615 7.49951 8.5 7.72336 8.5 7.99951V8.99976H9.5C9.77615 8.99976 10 9.22361 10 9.49976C10 9.77591 9.77615 9.99976 9.5 9.99976H8.5V10.9997C8.5 11.2758 8.27615 11.4997 8 11.4997C7.72385 11.4997 7.5 11.2758 7.5 10.9997V9.99976H6.5C6.22385 9.99976 6 9.77591 6 9.49976C6 9.22361 6.22385 8.99976 6.5 8.99976H7.5V7.99951C7.5 7.72336 7.72385 7.49951 8 7.49951Z" fill="white"/>
<path fill-rule="evenodd" clip-rule="evenodd" d="M6.5 3.5C6.5 2.67158 7.17155 2 8 2H12C12.8285 2 13.5 2.67158 13.5 3.5H15C16.1046 3.5 17 4.39543 17 5.5V19.5C17 20.6046 16.1046 21.5 15 21.5H5C3.89543 21.5 3 20.6046 3 19.5V5.5C3 4.39543 3.89543 3.5 5 3.5H6.5ZM12 6C12.8285 6 13.5 5.32845 13.5 4.5H15C15.5523 4.5 16 4.94771 16 5.5V19.5C16 20.0523 15.5523 20.5 15 20.5H5C4.44771 20.5 4 20.0523 4 19.5V5.5C4 4.94771 4.44771 4.5 5 4.5H6.5C6.5 5.32845 7.17155 6 8 6H12ZM8 3C7.72385 3 7.5 3.22386 7.5 3.5V4.5C7.5 4.77614 7.72385 5 8 5H12C12.2761 5 12.5 4.77614 12.5 4.5V3.5C12.5 3.22386 12.2761 3 12 3H8Z" fill="white"/>
</g>
<defs>
<clipPath id="clip0_1181_29946">
<rect width="24" height="24" fill="white" transform="translate(0.257812 0.0786133)"/>
</clipPath>
</defs>
</svg>
