<svg width="24" height="24" viewBox="0 0 24 24" fill="none" xmlns="http://www.w3.org/2000/svg">
<g clip-path="url(#clip0_567_6798)">
<path d="M23.2506 13.0264C23.0814 15.1529 22.3053 17.1863 21.0145 18.8847C19.7236 20.5832 17.9725 21.8755 15.9687 22.6078C13.9651 23.3403 11.7934 23.4823 9.71147 23.0168C7.62957 22.5512 5.72505 21.498 4.22418 19.9819C2.7233 18.4659 1.68916 16.5509 1.24462 14.4644C0.800074 12.3779 0.963813 10.2077 1.71638 8.21155C2.46895 6.2154 3.77872 4.47723 5.49007 3.20355C7.20143 1.92987 9.24242 1.17422 11.3706 1.02637" stroke="white" stroke-linecap="round" stroke-linejoin="round"/>
<path d="M16.9259 14.0118C16.6163 14.8086 16.113 15.5156 15.4615 16.069C14.81 16.6224 14.0308 17.0047 13.1944 17.1813C12.358 17.3578 11.4908 17.3232 10.6712 17.0803C9.85163 16.8375 9.10547 16.3942 8.50025 15.7905C7.89503 15.1869 7.44982 14.4419 7.2049 13.6229C6.95996 12.8039 6.92303 11.9368 7.09745 11.1C7.27187 10.2631 7.65214 9.48296 8.20385 8.83003C8.75555 8.17709 9.46133 7.67197 10.2573 7.36035" stroke="white" stroke-linecap="round" stroke-linejoin="round"/>
<path d="M12.1426 12.1431L16.4283 7.85742" stroke="white" stroke-linecap="round" stroke-linejoin="round"/>
<path d="M19.857 8.71429L16.4284 7.85714L15.5713 4.42857L18.9999 1L19.857 4.42857L23.2856 5.28571L19.857 8.71429Z" stroke="white" stroke-linecap="round" stroke-linejoin="round"/>
</g>
<defs>
<clipPath id="clip0_567_6798">
<rect width="24" height="24" fill="white"/>
</clipPath>
</defs>
</svg>
