<svg width="24" height="24" viewBox="0 0 24 24" fill="none" xmlns="http://www.w3.org/2000/svg">
<g clip-path="url(#clip0_567_6768)">
<path d="M12.5477 21.8968C12.1912 22.0344 11.7964 22.0344 11.44 21.8968C8.66062 20.8295 6.27039 18.9442 4.58497 16.49C2.89954 14.0357 1.99821 11.128 2 8.15075V3.53692C2.00041 3.12943 2.16247 2.73874 2.45061 2.4506C2.73874 2.16246 3.12943 2.00041 3.53692 2H20.4507C20.8587 2 21.25 2.16209 21.5386 2.4506C21.8271 2.73912 21.9892 3.13043 21.9892 3.53846V8.15075C21.9908 11.1282 21.0893 14.0361 19.4036 16.4903C17.7179 18.9446 15.3273 20.8298 12.5477 21.8968Z" stroke="white" stroke-linecap="round" stroke-linejoin="round"/>
<path d="M13.5322 5.8584H10.4553V8.93531H7.37988V12.0091H10.4568V15.0861H13.5306V12.0091H16.6075V8.93377H13.5306L13.5322 5.8584Z" stroke="white" stroke-linecap="round" stroke-linejoin="round"/>
</g>
<defs>
<clipPath id="clip0_567_6768">
<rect width="22" height="22" fill="white" transform="translate(1 1)"/>
</clipPath>
</defs>
</svg>
