<svg width="24" height="24" viewBox="0 0 24 24" fill="none" xmlns="http://www.w3.org/2000/svg">
<path d="M7.1824 11.3978C6.83503 11.722 6.83503 12.2547 7.1824 12.5789C8.0624 13.4357 9.89187 14.8947 11.9992 14.8947C14.1066 14.8947 15.9361 13.4357 16.8161 12.5789C17.1635 12.2547 17.1635 11.722 16.8161 11.3978C15.9361 10.541 14.1066 9.08203 11.9992 9.08203C9.89187 9.08203 8.0624 10.5641 7.1824 11.3978ZM13.9908 11.9999C13.9908 13.0883 13.1108 13.9915 11.9992 13.9915C10.9108 13.9915 10.0077 13.1115 10.0077 11.9999C10.0077 10.9115 10.8877 10.0083 11.9992 10.0083C13.0877 10.0083 13.9908 10.9115 13.9908 11.9999Z" fill="white"/>
<path d="M11.6525 10.8425C11.7219 10.9351 11.7683 11.0509 11.7683 11.1899C11.7683 11.5141 11.5135 11.792 11.1661 11.792C11.0272 11.792 10.9114 11.7457 10.8188 11.6762C10.7956 11.792 10.7725 11.9078 10.7725 12.0236C10.7725 12.6951 11.3283 13.2509 11.9998 13.2509C12.6714 13.2509 13.2272 12.6951 13.2272 12.0236C13.2272 11.352 12.6714 10.7962 11.9998 10.7962C11.884 10.773 11.7683 10.7962 11.6525 10.8425Z" fill="white"/>
<path d="M11.0508 3.10737L11.5139 2.64421V7.39158C11.5139 7.66947 11.7223 7.87789 12.0002 7.87789C12.2781 7.87789 12.4865 7.66947 12.4865 7.39158V2.64421L12.9497 3.10737C13.0423 3.2 13.1581 3.24632 13.2971 3.24632C13.4129 3.24632 13.5518 3.2 13.6444 3.10737C13.8297 2.92211 13.8297 2.62105 13.6444 2.43579L12.3476 1.13895C12.1623 0.953684 11.8613 0.953684 11.676 1.13895L10.3792 2.43579C10.1939 2.62105 10.1939 2.92211 10.3792 3.10737C10.5644 3.31579 10.8655 3.31579 11.0508 3.10737Z" fill="white"/>
<path d="M2.64421 12.4631H5.12211C5.4 12.4631 5.60842 12.2547 5.60842 11.9768C5.60842 11.6989 5.4 11.4905 5.12211 11.4905H2.64421L3.10737 11.0273C3.29263 10.8421 3.29263 10.541 3.10737 10.3557C2.92211 10.1705 2.62105 10.1705 2.43579 10.3557L1.13895 11.6526C1.04632 11.7452 1 11.861 1 12C1 12.1389 1.04632 12.2547 1.13895 12.3473L2.43579 13.621C2.52842 13.7136 2.64421 13.76 2.78316 13.76C2.89895 13.76 3.03789 13.7136 3.13053 13.621C3.31579 13.4357 3.31579 13.1347 3.13053 12.9494L2.64421 12.4631Z" fill="white"/>
<path d="M12.9497 20.8926L12.4865 21.3558V16.6084C12.4865 16.3305 12.2781 16.1221 12.0002 16.1221C11.7223 16.1221 11.5139 16.3305 11.5139 16.6084V21.3558L11.0508 20.8926C10.8655 20.7073 10.5644 20.7073 10.3792 20.8926C10.1939 21.0779 10.1939 21.3789 10.3792 21.5642L11.676 22.861C11.7687 22.9536 11.8844 23 12.0234 23C12.1392 23 12.2781 22.9536 12.3708 22.861L13.6676 21.5642C13.8529 21.3789 13.8529 21.0779 13.6676 20.8926C13.436 20.6842 13.135 20.6842 12.9497 20.8926Z" fill="white"/>
<path d="M4.56632 6.85875C4.84422 6.85875 5.05264 6.65033 5.05264 6.37243V5.70085L8.06316 8.71138C8.1558 8.80401 8.27158 8.85033 8.41053 8.85033C8.54948 8.85033 8.66527 8.80401 8.7579 8.71138C8.94316 8.52611 8.94316 8.22506 8.7579 8.0398L5.74737 5.02927H6.41895C6.69685 5.02927 6.90527 4.82085 6.90527 4.54296C6.90527 4.26506 6.69685 4.05664 6.41895 4.05664H4.58948C4.31159 4.05664 4.10316 4.26506 4.10316 4.54296V6.37243C4.08001 6.65033 4.31158 6.85875 4.56632 6.85875Z" fill="white"/>
<path d="M19.4333 17.141C19.1555 17.141 18.947 17.3494 18.947 17.6273V18.2989L15.9365 15.2884C15.7512 15.1031 15.4502 15.1031 15.2649 15.2884C15.0797 15.4736 15.0797 15.7747 15.2649 15.9599L18.2755 18.9705H17.6039C17.326 18.9705 17.1176 19.1789 17.1176 19.4568C17.1176 19.7347 17.326 19.9431 17.6039 19.9431H19.4333C19.7112 19.9431 19.9197 19.7347 19.9197 19.4568V17.6273C19.9197 17.3494 19.6881 17.141 19.4333 17.141Z" fill="white"/>
<path d="M15.5891 8.89622C15.7049 8.89622 15.8439 8.84991 15.9365 8.75728L18.947 5.74675V6.41833C18.947 6.69622 19.1555 6.90464 19.4333 6.90464C19.7112 6.90464 19.9197 6.69622 19.9197 6.41833V4.58885C19.9197 4.31096 19.7112 4.10254 19.4333 4.10254H17.6039C17.326 4.10254 17.1176 4.31096 17.1176 4.58885C17.1176 4.86675 17.326 5.07517 17.6039 5.07517H18.2755L15.2649 8.0857C15.0797 8.27096 15.0797 8.57201 15.2649 8.75728C15.3576 8.84991 15.4733 8.89622 15.5891 8.89622Z" fill="white"/>
<path d="M8.06324 15.2426L5.05271 18.2532V17.5816C5.05271 17.3037 4.84429 17.0953 4.56639 17.0953C4.2885 17.0953 4.08008 17.3037 4.08008 17.5816V19.411C4.08008 19.6889 4.2885 19.8974 4.56639 19.8974H6.39587C6.67376 19.8974 6.88218 19.6889 6.88218 19.411C6.88218 19.1332 6.6506 18.9479 6.37271 18.9479H5.70113L8.71166 15.9374C8.89692 15.7521 8.89692 15.451 8.71166 15.2658C8.54955 15.0574 8.2485 15.0574 8.06324 15.2426Z" fill="white"/>
<path d="M22.8611 11.676L21.5642 10.3792C21.379 10.1939 21.0779 10.1939 20.8927 10.3792C20.7074 10.5644 20.7074 10.8655 20.8927 11.0508L21.3558 11.5139H18.8779C18.6 11.5139 18.3916 11.7223 18.3916 12.0002C18.3916 12.2781 18.6 12.4865 18.8779 12.4865H21.3558L20.8927 12.9497C20.7074 13.135 20.7074 13.436 20.8927 13.6213C20.9853 13.7139 21.1011 13.7602 21.24 13.7602C21.379 13.7602 21.4948 13.7139 21.5874 13.6213L22.8842 12.3244C22.9769 12.2318 23.0232 12.116 23.0232 11.9771C23.0232 11.8381 22.9537 11.7687 22.8611 11.676Z" fill="white"/>
</svg>
