<svg width="24" height="24" viewBox="0 0 24 24" fill="none" xmlns="http://www.w3.org/2000/svg">
<g clip-path="url(#clip0_567_6785)">
<path d="M6.50042 1.78613H3.35756C2.94079 1.78613 2.54109 1.95169 2.24639 2.24639C1.95169 2.54109 1.78613 2.94079 1.78613 3.35756V6.50042C1.78613 6.91719 1.95169 7.31689 2.24639 7.61159C2.54109 7.90629 2.94079 8.07185 3.35756 8.07185H6.50042C6.91719 8.07185 7.31689 7.90629 7.61159 7.61159C7.90629 7.31689 8.07185 6.91719 8.07185 6.50042V3.35756C8.07185 2.94079 7.90629 2.54109 7.61159 2.24639C7.31689 1.95169 6.91719 1.78613 6.50042 1.78613Z" stroke="white" stroke-linecap="round" stroke-linejoin="round"/>
<path d="M6.50042 15.9287H3.35756C2.94079 15.9287 2.54109 16.0943 2.24639 16.389C1.95169 16.6837 1.78613 17.0834 1.78613 17.5001V20.643C1.78613 21.0598 1.95169 21.4595 2.24639 21.7542C2.54109 22.0489 2.94079 22.2144 3.35756 22.2144H6.50042C6.91719 22.2144 7.31689 22.0489 7.61159 21.7542C7.90629 21.4595 8.07185 21.0598 8.07185 20.643V17.5001C8.07185 17.0834 7.90629 16.6837 7.61159 16.389C7.31689 16.0943 6.91719 15.9287 6.50042 15.9287Z" stroke="white" stroke-linecap="round" stroke-linejoin="round"/>
<path d="M20.643 15.9287H17.5001C17.0834 15.9287 16.6837 16.0943 16.389 16.389C16.0943 16.6837 15.9287 17.0834 15.9287 17.5001V20.643C15.9287 21.0598 16.0943 21.4595 16.389 21.7542C16.6837 22.0489 17.0834 22.2144 17.5001 22.2144H20.643C21.0598 22.2144 21.4595 22.0489 21.7542 21.7542C22.0489 21.4595 22.2144 21.0598 22.2144 20.643V17.5001C22.2144 17.0834 22.0489 16.6837 21.7542 16.389C21.4595 16.0943 21.0598 15.9287 20.643 15.9287Z" stroke="white" stroke-linecap="round" stroke-linejoin="round"/>
<path d="M4.92871 15.9294V8.07227" stroke="white" stroke-linecap="round" stroke-linejoin="round"/>
<path d="M19.0714 15.9287V8.07157C19.0714 7.23803 18.7403 6.43863 18.1509 5.84923C17.5615 5.25983 16.7621 4.92871 15.9286 4.92871H12" stroke="white" stroke-linecap="round" stroke-linejoin="round"/>
<path d="M15.1429 1.78613L12 4.92899L15.1429 8.07185" stroke="white" stroke-linecap="round" stroke-linejoin="round"/>
</g>
<defs>
<clipPath id="clip0_567_6785">
<rect width="22" height="22" fill="white" transform="translate(1 1)"/>
</clipPath>
</defs>
</svg>
