<svg width="22" height="22" viewBox="0 0 22 22" fill="none" xmlns="http://www.w3.org/2000/svg">
<path d="M11.82 19.5342C11.5221 19.6492 11.1922 19.6492 10.8943 19.5342C8.57211 18.639 6.57525 17.0618 5.16625 15.0103C3.75723 12.9587 3.00206 10.5288 3 8.04V4.28572C3 3.94472 3.13546 3.6177 3.37658 3.37658C3.6177 3.13546 3.94472 3 4.28571 3H18.4286C18.7695 3 19.0966 3.13546 19.3377 3.37658C19.5788 3.6177 19.7143 3.94472 19.7143 4.28572V8.04C19.7122 10.5288 18.957 12.9587 17.548 15.0103C16.1391 17.0618 14.1422 18.639 11.82 19.5342Z" stroke="white" stroke-linecap="round" stroke-linejoin="round"/>
<path d="M13.929 11.3059V8.73451C13.929 7.31435 12.7777 6.16309 11.3576 6.16309C9.9374 6.16309 8.78613 7.31435 8.78613 8.73451V11.3059C8.78613 12.7261 9.9374 13.8774 11.3576 13.8774C12.7777 13.8774 13.929 12.7261 13.929 11.3059Z" stroke="white" stroke-linecap="round" stroke-linejoin="round"/>
<path d="M6.85742 10.0205H8.78599" stroke="white" stroke-linecap="round" stroke-linejoin="round"/>
<path d="M13.9287 10.0205H15.8573" stroke="white" stroke-linecap="round" stroke-linejoin="round"/>
<path d="M8.78613 9.37695H13.929" stroke="white" stroke-linecap="round" stroke-linejoin="round"/>
<path d="M13.6875 7.68987L15.2143 6.16309" stroke="white" stroke-linecap="round" stroke-linejoin="round"/>
<path d="M13.6875 12.3506L15.2143 13.8774" stroke="white" stroke-linecap="round" stroke-linejoin="round"/>
<path d="M9.02679 12.3506L7.5 13.8774" stroke="white" stroke-linecap="round" stroke-linejoin="round"/>
<path d="M9.02679 7.68987L7.5 6.16309" stroke="white" stroke-linecap="round" stroke-linejoin="round"/>
</svg>
