<svg width="22" height="22" viewBox="0 0 22 22" fill="none" xmlns="http://www.w3.org/2000/svg">
<path d="M19.5701 6.9772C19.5453 6.84247 19.4925 6.71446 19.4149 6.60149C19.3374 6.48853 19.237 6.39313 19.1201 6.32149L16.5487 8.89291C16.4287 9.01735 16.285 9.11633 16.1259 9.18394C15.9669 9.25154 15.7958 9.28638 15.623 9.28638C15.4502 9.28638 15.2792 9.25154 15.1201 9.18394C14.961 9.11633 14.8172 9.01735 14.6973 8.89291L13.7202 8.01863C13.4846 7.77829 13.3526 7.45516 13.3526 7.11863C13.3526 6.78209 13.4846 6.45897 13.7202 6.21863L16.2915 3.6472C16.2355 3.51546 16.1511 3.39766 16.0446 3.30212C15.9378 3.20659 15.8116 3.13565 15.6744 3.09434C14.7772 2.91542 13.8478 2.99201 12.992 3.31539C12.1362 3.63876 11.3884 4.19593 10.8337 4.92346C10.279 5.651 9.93971 6.51967 9.85448 7.43056C9.77464 8.28383 9.92073 9.14205 10.2766 9.91944L3.37658 16.8194C2.86722 17.3288 2.87567 18.1572 3.39531 18.6561L4.11631 19.3483C4.6192 19.8311 5.41525 19.8252 5.91088 19.3348L12.8902 12.4311C13.645 12.7429 14.4673 12.8615 15.2821 12.7741C16.183 12.6775 17.0396 12.333 17.7564 11.7787C18.4733 11.2244 19.0223 10.4822 19.3424 9.6345C19.6627 8.78684 19.7415 7.86698 19.5701 6.9772Z" stroke="white" stroke-linecap="round" stroke-linejoin="round"/>
</svg>
