<svg width="22" height="22" viewBox="0 0 22 22" fill="none" xmlns="http://www.w3.org/2000/svg">
<g clip-path="url(#clip0_267_14912)">
<path d="M1.08165 2.50502C1.08165 2.08825 1.24721 1.68855 1.54191 1.39385C1.83661 1.09915 2.23631 0.933594 2.65308 0.933594H19.2976C19.7144 0.933594 20.1141 1.09915 20.4088 1.39385C20.7035 1.68855 20.8691 2.08825 20.8691 2.50502V19.1527C20.8691 19.5695 20.7035 19.9692 20.4088 20.2639C20.1141 20.5586 19.7144 20.7242 19.2976 20.7242H2.65151C2.23474 20.7242 1.83504 20.5586 1.54034 20.2639C1.24564 19.9692 1.08008 19.5695 1.08008 19.1527V2.50502H1.08165Z" stroke="white" stroke-width="1.2" stroke-linecap="round" stroke-linejoin="round"/>
<path d="M9.72384 5.59923C9.51545 5.59923 9.3156 5.68201 9.16825 5.82936C9.0209 5.97671 8.93812 6.17656 8.93812 6.38494V8.59437H6.72712C6.51874 8.59437 6.31889 8.67715 6.17154 8.8245C6.02419 8.97185 5.94141 9.1717 5.94141 9.38008V11.9337C5.94141 12.0368 5.96173 12.139 6.00122 12.2343C6.0407 12.3297 6.09858 12.4163 6.17154 12.4892C6.2445 12.5622 6.33111 12.6201 6.42644 12.6596C6.52177 12.699 6.62394 12.7194 6.72712 12.7194H8.93812V14.9288C8.93812 15.1372 9.0209 15.337 9.16825 15.4844C9.3156 15.6317 9.51545 15.7145 9.72384 15.7145H12.2774C12.4858 15.7145 12.6856 15.6317 12.833 15.4844C12.9803 15.337 13.0631 15.1372 13.0631 14.9288V12.7194H15.2725C15.4809 12.7194 15.6808 12.6366 15.8281 12.4892C15.9755 12.3419 16.0583 12.142 16.0583 11.9337V9.38008C16.0583 9.1717 15.9755 8.97185 15.8281 8.8245C15.6808 8.67715 15.4809 8.59437 15.2725 8.59437H13.0631V6.38337C13.0631 6.17499 12.9803 5.97514 12.833 5.82779C12.6856 5.68044 12.4858 5.59766 12.2774 5.59766L9.72384 5.59923Z" stroke="white" stroke-width="1.2" stroke-linecap="round" stroke-linejoin="round"/>
</g>
<defs>
<clipPath id="clip0_267_14912">
<rect width="22" height="22" fill="white"/>
</clipPath>
</defs>
</svg>
