<svg width="22" height="22" viewBox="0 0 22 22" fill="none" xmlns="http://www.w3.org/2000/svg">
<path d="M20.7119 21.2151C20.0522 19.1579 18.7562 17.3633 17.0109 16.0901C15.2655 14.8169 13.1609 14.1309 11.0005 14.1309C8.84008 14.1309 6.73549 14.8169 4.99012 16.0901C3.24475 17.3633 1.94878 19.1579 1.28906 21.2151H20.7119Z" stroke="white" stroke-width="1.2" stroke-linecap="round" stroke-linejoin="round"/>
<path d="M10.9999 14.1433C11.8732 14.1433 12.738 13.9713 13.5448 13.6371C14.3517 13.3029 15.0848 12.8131 15.7024 12.1955C16.3199 11.578 16.8098 10.8449 17.144 10.038C17.4782 9.23116 17.6502 8.36639 17.6502 7.49306C17.6502 6.61973 17.4782 5.75496 17.144 4.94811C16.8098 4.14126 16.3199 3.40813 15.7024 2.7906C15.0848 2.17306 14.3517 1.6832 13.5448 1.349C12.738 1.01479 11.8732 0.842773 10.9999 0.842773C9.23613 0.842773 7.5446 1.54343 6.29743 2.7906C5.05026 4.03777 4.34961 5.72929 4.34961 7.49306C4.34961 9.25683 5.05026 10.9484 6.29743 12.1955C7.5446 13.4427 9.23613 14.1433 10.9999 14.1433Z" stroke="white" stroke-width="1.2" stroke-linecap="round" stroke-linejoin="round"/>
<path d="M13.1716 10.0654C13.1716 10.0654 12.62 11.1513 10.9998 11.1513C9.38127 11.1513 8.82812 10.067 8.82812 10.067" stroke="white" stroke-width="1.2" stroke-linecap="round" stroke-linejoin="round"/>
<path d="M17.5293 6.22615H17.4853C16.5671 6.22701 15.6591 6.0324 14.8219 5.65525C13.9847 5.27809 13.2374 4.72704 12.6296 4.03872C12.0216 4.72724 11.274 5.27841 10.4365 5.65557C9.59903 6.03273 8.69082 6.22724 7.7723 6.22615C6.68929 6.2284 5.6231 5.95821 4.67188 5.44043C5.12797 4.03872 6.03664 2.82816 7.25523 1.99879C8.47381 1.16941 9.93332 0.768186 11.4046 0.858097C12.8759 0.948008 14.2757 1.52396 15.3842 2.49555C16.4928 3.46713 17.2473 4.77933 17.5293 6.22615Z" stroke="white" stroke-width="1.2" stroke-linecap="round" stroke-linejoin="round"/>
</svg>
