<svg width="22" height="22" viewBox="0 0 22 22" fill="none" xmlns="http://www.w3.org/2000/svg">
<path d="M17.9221 7.92296C17.9221 12.5383 10.9991 17.9228 10.9991 17.9228C10.9991 17.9228 4.07617 12.5383 4.07617 7.92296C4.07617 4.15225 7.22843 1 10.9991 1C14.7698 1 17.9221 4.15225 17.9221 7.92296Z" stroke="white" stroke-width="1.2" stroke-linecap="round" stroke-linejoin="round"/>
<path d="M10.9991 10.2315C11.6111 10.2315 12.198 9.98839 12.6308 9.55562C13.0636 9.12285 13.3067 8.53589 13.3067 7.92386C13.3067 7.31184 13.0636 6.72488 12.6308 6.29211C12.198 5.85934 11.6111 5.61621 10.9991 5.61621C10.387 5.61621 9.80007 5.85934 9.3673 6.29211C8.93453 6.72488 8.69141 7.31184 8.69141 7.92386C8.69141 8.53589 8.93453 9.12285 9.3673 9.55562C9.80007 9.98839 10.387 10.2315 10.9991 10.2315Z" stroke="white" stroke-width="1.2" stroke-linecap="round" stroke-linejoin="round"/>
<path d="M17.272 15.6152H18.692L20.9997 20.9998H1L3.30765 15.6152H4.72763" stroke="white" stroke-width="1.2" stroke-linecap="round" stroke-linejoin="round"/>
</svg>
