<svg width="22" height="23" viewBox="0 0 22 23" fill="none" xmlns="http://www.w3.org/2000/svg">
<path d="M14.3824 1.06519C14.1551 1.06519 13.937 1.1555 13.7763 1.31624C13.6155 1.47699 13.5252 1.69501 13.5252 1.92233V4.33433H11.115C10.8876 4.33433 10.6696 4.42464 10.5089 4.58539C10.3481 4.74613 10.2578 4.96415 10.2578 5.19148V7.97719C10.2578 8.20452 10.3481 8.42254 10.5089 8.58328C10.6696 8.74403 10.8876 8.83433 11.115 8.83433H13.5252V11.2446C13.5252 11.4719 13.6155 11.69 13.7763 11.8507C13.937 12.0115 14.1551 12.1018 14.3824 12.1018H17.1681C17.3954 12.1018 17.6134 12.0115 17.7742 11.8507C17.9349 11.69 18.0252 11.4719 18.0252 11.2446V8.83433H20.4355C20.6629 8.83433 20.8809 8.74403 21.0416 8.58328C21.2024 8.42254 21.2927 8.20452 21.2927 7.97719V5.19148C21.2927 4.96415 21.2024 4.74613 21.0416 4.58539C20.8809 4.42464 20.6629 4.33433 20.4355 4.33433H18.0252V1.92062C18.0252 1.69329 17.9349 1.47527 17.7742 1.31453C17.6134 1.15378 17.3954 1.06348 17.1681 1.06348H14.3824V1.06519Z" stroke="white" stroke-width="1.2" stroke-linecap="round" stroke-linejoin="round"/>
<path d="M1.12695 17.7793L5.31667 21.2713C5.9328 21.7843 6.70922 22.0651 7.51095 22.065H18.5561C19.3447 22.065 19.9841 21.4256 19.9841 20.637C19.9841 19.0599 18.7052 17.7793 17.1264 17.7793H9.4481" stroke="white" stroke-width="1.2" stroke-linecap="round" stroke-linejoin="round"/>
<path d="M6.26981 16.065L7.55553 17.3507C7.72437 17.5196 7.92481 17.6535 8.14542 17.7449C8.36602 17.8363 8.60246 17.8833 8.84124 17.8833C9.08002 17.8833 9.31646 17.8363 9.53706 17.7449C9.75767 17.6535 9.95811 17.5196 10.127 17.3507C10.2958 17.1819 10.4297 16.9814 10.5211 16.7608C10.6125 16.5402 10.6595 16.3038 10.6595 16.065C10.6595 15.8262 10.6125 15.5898 10.5211 15.3692C10.4297 15.1486 10.2958 14.9481 10.127 14.7793L8.13153 12.7839C7.48869 12.1408 6.61676 11.7795 5.70753 11.7793H1.12695" stroke="white" stroke-width="1.2" stroke-linecap="round" stroke-linejoin="round"/>
</svg>
