<svg width="22" height="20" viewBox="0 0 22 20" fill="none" xmlns="http://www.w3.org/2000/svg">
<path d="M15.1247 4.71008C14.9631 5.41615 15.0885 6.15753 15.4734 6.77113C15.8584 7.38472 16.4713 7.82027 17.1773 7.98195C17.8834 8.14364 18.6248 8.01822 19.2384 7.63328C19.852 7.24834 20.2875 6.63542 20.4492 5.92935C20.6109 5.22329 20.4855 4.48191 20.1005 3.86831C19.7156 3.25472 19.1027 2.81917 18.3966 2.65749C17.6905 2.4958 16.9492 2.62122 16.3356 3.00616C15.722 3.3911 15.2864 4.00402 15.1247 4.71008Z" stroke="white" stroke-width="1.2" stroke-linecap="round" stroke-linejoin="round"/>
<path d="M2.73439 0.602539H1.01367V6.25025C1.01367 7.59156 1.5464 8.87795 2.4947 9.82655C3.443 10.7751 4.72922 11.3083 6.07053 11.3087C6.73494 11.3089 7.39289 11.1782 8.00679 10.9241C8.62069 10.67 9.17851 10.2974 9.64839 9.82766C10.1183 9.35792 10.491 8.80021 10.7453 8.18639C10.9996 7.57257 11.1305 6.91467 11.1305 6.25025V0.602539H9.41139" stroke="white" stroke-width="1.2" stroke-linecap="round" stroke-linejoin="round"/>
<path d="M6.17188 11.3574V13.2557C6.17187 14.0189 6.32218 14.7745 6.61422 15.4796C6.90626 16.1846 7.3343 16.8252 7.87392 17.3648C8.96372 18.4546 10.4418 19.0669 11.983 19.0669C12.7463 19.0671 13.5021 18.9169 14.2073 18.625C14.9125 18.333 15.5534 17.905 16.0931 17.3654C16.6329 16.8258 17.0611 16.1851 17.3532 15.4799C17.6454 14.7748 17.7957 14.019 17.7957 13.2557V8.3623" stroke="white" stroke-width="1.2" stroke-linecap="round" stroke-linejoin="round"/>
</svg>
