<svg width="20" height="22" viewBox="0 0 20 22" fill="none" xmlns="http://www.w3.org/2000/svg">
<path d="M7.21785 3.53613L7.89357 1.79185C8.00752 1.49652 8.20802 1.24249 8.46879 1.06304C8.72956 0.883583 9.03845 0.787068 9.355 0.786133H10.6436C10.9601 0.787068 11.269 0.883583 11.5298 1.06304C11.7905 1.24249 11.991 1.49652 12.105 1.79185L12.7807 3.53613L15.075 4.85613L16.9293 4.57328C17.238 4.53137 17.5523 4.58219 17.8321 4.7193C18.1119 4.8564 18.3446 5.07359 18.5007 5.34328L19.1293 6.44328C19.2904 6.71725 19.3646 7.03363 19.3421 7.35065C19.3197 7.66767 19.2016 7.97044 19.0036 8.21899L17.8564 9.68042V12.3204L19.035 13.7818C19.2331 14.0304 19.3511 14.3332 19.3735 14.6502C19.396 14.9672 19.3218 15.2836 19.1607 15.5576L18.5321 16.6576C18.3761 16.9272 18.1433 17.1444 17.8635 17.2815C17.5837 17.4186 17.2695 17.4695 16.9607 17.4276L15.1064 17.1447L12.8121 18.4647L12.1364 20.209C12.0225 20.5043 11.822 20.7583 11.5612 20.9378C11.3004 21.1173 10.9915 21.2138 10.675 21.2147H9.355C9.03845 21.2138 8.72956 21.1173 8.46879 20.9378C8.20802 20.7583 8.00752 20.5043 7.89357 20.209L7.21785 18.4647L4.92357 17.1447L3.06928 17.4276C2.76052 17.4695 2.44627 17.4186 2.16647 17.2815C1.88666 17.1444 1.65393 16.9272 1.49785 16.6576L0.869281 15.5576C0.708212 15.2836 0.634003 14.9672 0.656447 14.6502C0.678891 14.3332 0.796933 14.0304 0.994995 13.7818L2.14214 12.3204V9.68042L0.963567 8.21899C0.765505 7.97044 0.647462 7.66767 0.625018 7.35065C0.602574 7.03363 0.676783 6.71725 0.837853 6.44328L1.46642 5.34328C1.6225 5.07359 1.85523 4.8564 2.13504 4.7193C2.41484 4.58219 2.72909 4.53137 3.03785 4.57328L4.89214 4.85613L7.21785 3.53613ZM6.85642 11.0004C6.85642 11.834 7.18755 12.6334 7.77695 13.2228C8.36635 13.8122 9.16574 14.1433 9.99928 14.1433C10.8328 14.1433 11.6322 13.8122 12.2216 13.2228C12.811 12.6334 13.1421 11.834 13.1421 11.0004C13.1421 10.1669 12.811 9.36748 12.2216 8.77808C11.6322 8.18868 10.8328 7.85756 9.99928 7.85756C9.16574 7.85756 8.36635 8.18868 7.77695 8.77808C7.18755 9.36748 6.85642 10.1669 6.85642 11.0004Z" stroke="white" stroke-width="1.2" stroke-linecap="round" stroke-linejoin="round"/>
</svg>
