<svg width="12" height="12" viewBox="0 0 12 12" fill="none" xmlns="http://www.w3.org/2000/svg">
<g clip-path="url(#clip0_77_10270)">
<path d="M9.77498 4.32157C9.77498 6.83901 5.99882 9.77603 5.99882 9.77603C5.99882 9.77603 2.22266 6.83901 2.22266 4.32157C2.22266 2.26482 3.94207 0.54541 5.99882 0.54541C8.05556 0.54541 9.77498 2.26482 9.77498 4.32157Z" stroke="#888B92" stroke-linecap="round" stroke-linejoin="round"/>
<path d="M5.99895 5.58043C6.33279 5.58043 6.65295 5.44781 6.889 5.21176C7.12506 4.9757 7.25767 4.65554 7.25767 4.32171C7.25767 3.98787 7.12506 3.66771 6.889 3.43166C6.65295 3.1956 6.33279 3.06299 5.99895 3.06299C5.66512 3.06299 5.34496 3.1956 5.1089 3.43166C4.87285 3.66771 4.74023 3.98787 4.74023 4.32171C4.74023 4.65554 4.87285 4.9757 5.1089 5.21176C5.34496 5.44781 5.66512 5.58043 5.99895 5.58043Z" stroke="#888B92" stroke-linecap="round" stroke-linejoin="round"/>
<path d="M9.42057 8.51758H10.1951L11.4538 11.4546H0.544922L1.80364 8.51758H2.57817" stroke="#888B92" stroke-linecap="round" stroke-linejoin="round"/>
</g>
<defs>
<clipPath id="clip0_77_10270">
<rect width="12" height="12" fill="white"/>
</clipPath>
</defs>
</svg>
