<svg width="38" height="38" viewBox="0 0 38 38" fill="none" xmlns="http://www.w3.org/2000/svg">
<rect width="38" height="38" fill="white"/>
<rect width="38" height="38" rx="19" fill="#FB945A"/>
<path fill-rule="evenodd" clip-rule="evenodd" d="M19 24.5C21.6579 24.5 23.8125 22.3454 23.8125 19.6875V12.8125C23.8125 10.1546 21.6579 8 19 8C16.3421 8 14.1875 10.1546 14.1875 12.8125V19.6875C14.1875 22.3454 16.3421 24.5 19 24.5ZM26.5625 21.0625H25.1875C24.5612 23.8173 21.9439 25.875 19 25.875C16.0561 25.875 13.4388 23.8173 12.8125 21.0625H11.4375C12.0446 24.3618 14.9183 26.9131 18.3125 27.2191V28.625H17.625C17.2455 28.625 16.9375 28.933 16.9375 29.3125C16.9375 29.6927 17.2455 30 17.625 30H20.375C20.7545 30 21.0625 29.6927 21.0625 29.3125C21.0625 28.933 20.7545 28.625 20.375 28.625H19.6875V27.2191C23.0817 26.9131 25.9554 24.3618 26.5625 21.0625Z" fill="white"/>
</svg>
