<svg width="16" height="22" viewBox="0 0 16 22" fill="none" xmlns="http://www.w3.org/2000/svg">
<path fill-rule="evenodd" clip-rule="evenodd" d="M8 16.5C10.6579 16.5 12.8125 14.3454 12.8125 11.6875V4.8125C12.8125 2.15462 10.6579 0 8 0C5.34212 0 3.1875 2.15462 3.1875 4.8125V11.6875C3.1875 14.3454 5.34212 16.5 8 16.5ZM15.5625 13.0625H14.1875C13.5612 15.8173 10.9439 17.875 8 17.875C5.05613 17.875 2.43881 15.8173 1.8125 13.0625H0.4375C1.04456 16.3618 3.91831 18.9131 7.3125 19.2191V20.625H6.625C6.2455 20.625 5.9375 20.933 5.9375 21.3125C5.9375 21.6927 6.2455 22 6.625 22H9.375C9.7545 22 10.0625 21.6927 10.0625 21.3125C10.0625 20.933 9.7545 20.625 9.375 20.625H8.6875V19.2191C12.0817 18.9131 14.9554 16.3618 15.5625 13.0625Z" fill="black"/>
</svg>
