<svg width="20" height="20" viewBox="0 0 20 20" fill="none" xmlns="http://www.w3.org/2000/svg">
<path d="M15.3585 7.85714C16.3057 7.85714 17.2141 7.48086 17.8839 6.81109C18.5537 6.14132 18.93 5.23291 18.93 4.28571C18.93 3.33851 18.5537 2.4301 17.8839 1.76033C17.2141 1.09055 16.3057 0.714279 15.3585 0.714279C14.4113 0.714279 13.5029 1.09055 12.8332 1.76033C12.1634 2.4301 11.7871 3.33851 11.7871 4.28571C11.7871 5.23291 12.1634 6.14132 12.8332 6.81109C13.5029 7.48086 14.4113 7.85714 15.3585 7.85714Z" stroke="#2859C5" stroke-linecap="round" stroke-linejoin="round"/>
<path d="M14.1906 11.4286V13.62C14.1906 14.1771 14.412 14.7143 14.8077 15.1086C15.202 15.5043 15.8706 15.7257 16.4291 15.7257H0.714844C1.27342 15.7257 1.94199 15.5043 2.33627 15.1086C2.53208 14.9133 2.6874 14.6813 2.79331 14.4258C2.89921 14.1704 2.95362 13.8965 2.95341 13.62V8.4757C2.95341 6.98557 3.54537 5.55646 4.59906 4.50277C5.65274 3.44909 7.08185 2.85713 8.57199 2.85713" stroke="#2859C5" stroke-linecap="round" stroke-linejoin="round"/>
<path d="M7.14258 19.2857H9.99972" stroke="#2859C5" stroke-linecap="round" stroke-linejoin="round"/>
</svg>
