<svg width="24" height="24" viewBox="0 0 24 24" fill="none" xmlns="http://www.w3.org/2000/svg">
<g clip-path="url(#clip0_26_7691)">
<path d="M22.5948 23.1429C21.8751 20.8986 20.4613 18.9409 18.5573 17.552C16.6533 16.163 14.3573 15.4146 12.0005 15.4146C9.64373 15.4146 7.3478 16.163 5.44376 17.552C3.53973 18.9409 2.12595 20.8986 1.40625 23.1429H22.5948Z" stroke="#2859C5" stroke-linecap="round" stroke-linejoin="round"/>
<path d="M12.001 15.4286C12.9537 15.4286 13.8971 15.2409 14.7773 14.8763C15.6575 14.5117 16.4572 13.9773 17.1309 13.3037C17.8046 12.63 18.339 11.8302 18.7036 10.95C19.0682 10.0698 19.2558 9.12643 19.2558 8.17371C19.2558 7.22099 19.0682 6.2776 18.7036 5.3974C18.339 4.5172 17.8046 3.71743 17.1309 3.04375C16.4572 2.37008 15.6575 1.83569 14.7773 1.4711C13.8971 1.10651 12.9537 0.918854 12.001 0.918854C10.0768 0.918854 8.23154 1.6832 6.87099 3.04375C5.51044 4.4043 4.74609 6.2496 4.74609 8.17371C4.74609 10.0978 5.51044 11.9431 6.87099 13.3037C8.23154 14.6642 10.0768 15.4286 12.001 15.4286Z" stroke="#2859C5" stroke-linecap="round" stroke-linejoin="round"/>
<path d="M14.3691 10.98C14.3691 10.98 13.7674 12.1646 12 12.1646C10.2343 12.1646 9.63086 10.9817 9.63086 10.9817" stroke="#2859C5" stroke-linecap="round" stroke-linejoin="round"/>
<path d="M19.1239 6.792H19.0759C18.0742 6.79295 17.0838 6.58064 16.1704 6.1692C15.2571 5.75776 14.4418 5.15661 13.7788 4.40571C13.1156 5.15683 12.3 5.7581 11.3864 6.16955C10.4727 6.581 9.48196 6.79319 8.47994 6.792C7.29847 6.79446 6.13536 6.4997 5.09766 5.93486C5.59522 4.40572 6.58649 3.08511 7.91586 2.18033C9.24523 1.27556 10.8374 0.83786 12.4425 0.935945C14.0475 1.03403 15.5746 1.66235 16.7839 2.72226C17.9932 3.78217 18.8163 5.21366 19.1239 6.792Z" stroke="#2859C5" stroke-linecap="round" stroke-linejoin="round"/>
</g>
<defs>
<clipPath id="clip0_26_7691">
<rect width="24" height="24" fill="white"/>
</clipPath>
</defs>
</svg>
