<svg width="16" height="16" viewBox="0 0 16 16" fill="none" xmlns="http://www.w3.org/2000/svg">
<g clip-path="url(#clip0_77_10455)">
<path d="M2.9997 8.33352L8.33303 3.00019C8.95187 2.38135 9.7912 2.03369 10.6664 2.03369C11.5415 2.03369 12.3809 2.38135 12.9997 3.00019C13.6185 3.61903 13.9662 4.45835 13.9662 5.33352C13.9662 6.20869 13.6185 7.04802 12.9997 7.66686L7.66637 13.0002C7.04753 13.619 6.2082 13.9667 5.33303 13.9667C4.45786 13.9667 3.61854 13.619 2.9997 13.0002C2.38086 12.3814 2.0332 11.542 2.0332 10.6669C2.0332 9.79169 2.38086 8.95236 2.9997 8.33352Z" stroke="#888B92" stroke-linecap="round" stroke-linejoin="round"/>
<path d="M5.66602 5.6665L10.3327 10.3332" stroke="#888B92" stroke-linecap="round" stroke-linejoin="round"/>
</g>
<defs>
<clipPath id="clip0_77_10455">
<rect width="16" height="16" fill="white"/>
</clipPath>
</defs>
</svg>
