<svg width="22" height="22" viewBox="0 0 22 22" fill="none" xmlns="http://www.w3.org/2000/svg">
<g clip-path="url(#clip0_23_7396)">
<path d="M5.49944 0.785713H2.35658C1.93982 0.785713 1.54012 0.951274 1.24542 1.24597C0.950717 1.54067 0.785156 1.94037 0.785156 2.35714V5.5C0.785156 5.91677 0.950717 6.31647 1.24542 6.61117C1.54012 6.90587 1.93982 7.07143 2.35658 7.07143H5.49944C5.91621 7.07143 6.31591 6.90587 6.61061 6.61117C6.90531 6.31647 7.07087 5.91677 7.07087 5.5V2.35714C7.07087 1.94037 6.90531 1.54067 6.61061 1.24597C6.31591 0.951274 5.91621 0.785713 5.49944 0.785713Z" stroke="#2859C5" stroke-linecap="round" stroke-linejoin="round"/>
<path d="M5.49944 14.9286H2.35658C1.93982 14.9286 1.54012 15.0941 1.24542 15.3888C0.950717 15.6835 0.785156 16.0832 0.785156 16.5V19.6429C0.785156 20.0596 0.950717 20.4593 1.24542 20.754C1.54012 21.0487 1.93982 21.2143 2.35658 21.2143H5.49944C5.91621 21.2143 6.31591 21.0487 6.61061 20.754C6.90531 20.4593 7.07087 20.0596 7.07087 19.6429V16.5C7.07087 16.0832 6.90531 15.6835 6.61061 15.3888C6.31591 15.0941 5.91621 14.9286 5.49944 14.9286Z" stroke="#2859C5" stroke-linecap="round" stroke-linejoin="round"/>
<path d="M19.642 14.9286H16.4992C16.0824 14.9286 15.6827 15.0941 15.388 15.3888C15.0933 15.6835 14.9277 16.0832 14.9277 16.5V19.6429C14.9277 20.0596 15.0933 20.4593 15.388 20.754C15.6827 21.0487 16.0824 21.2143 16.4992 21.2143H19.642C20.0588 21.2143 20.4585 21.0487 20.7532 20.754C21.0479 20.4593 21.2134 20.0596 21.2134 19.6429V16.5C21.2134 16.0832 21.0479 15.6835 20.7532 15.3888C20.4585 15.0941 20.0588 14.9286 19.642 14.9286Z" stroke="#2859C5" stroke-linecap="round" stroke-linejoin="round"/>
<path d="M3.92773 14.9286V7.07143" stroke="#2859C5" stroke-linecap="round" stroke-linejoin="round"/>
<path d="M18.0714 14.9286V7.07143C18.0714 6.23789 17.7403 5.4385 17.1509 4.84909C16.5615 4.25969 15.7621 3.92857 14.9286 3.92857H11" stroke="#2859C5" stroke-linecap="round" stroke-linejoin="round"/>
<path d="M14.1429 0.785713L11 3.92857L14.1429 7.07143" stroke="#2859C5" stroke-linecap="round" stroke-linejoin="round"/>
</g>
<defs>
<clipPath id="clip0_23_7396">
<rect width="22" height="22" fill="white"/>
</clipPath>
</defs>
</svg>
