<svg width="24" height="24" viewBox="0 0 24 24" fill="none" xmlns="http://www.w3.org/2000/svg">
<path d="M1.17945 2.73257C1.17945 2.27791 1.36006 1.84187 1.68155 1.52038C2.00304 1.19889 2.43908 1.01828 2.89373 1.01828H21.0514C21.5061 1.01828 21.9421 1.19889 22.2636 1.52038C22.5851 1.84187 22.7657 2.27791 22.7657 2.73257V20.8937C22.7657 21.3484 22.5851 21.7844 22.2636 22.1059C21.9421 22.4274 21.5061 22.608 21.0514 22.608H2.89202C2.43736 22.608 2.00133 22.4274 1.67984 22.1059C1.35835 21.7844 1.17773 21.3484 1.17773 20.8937V2.73257H1.17945Z" stroke="#2859C5" stroke-linecap="round" stroke-linejoin="round"/>
<path d="M10.6087 6.10799C10.3814 6.10799 10.1634 6.1983 10.0026 6.35904C9.84187 6.51979 9.75157 6.73781 9.75157 6.96513V9.37542H7.33957C7.11224 9.37542 6.89422 9.46573 6.73347 9.62647C6.57273 9.78722 6.48242 10.0052 6.48242 10.2326V13.0183C6.48242 13.1308 6.50459 13.2423 6.54767 13.3463C6.59074 13.4503 6.65388 13.5448 6.73347 13.6244C6.81307 13.704 6.90756 13.7671 7.01155 13.8102C7.11554 13.8532 7.227 13.8754 7.33957 13.8754H9.75157V16.2857C9.75157 16.513 9.84187 16.7311 10.0026 16.8918C10.1634 17.0525 10.3814 17.1428 10.6087 17.1428H13.3944C13.6218 17.1428 13.8398 17.0525 14.0005 16.8918C14.1613 16.7311 14.2516 16.513 14.2516 16.2857V13.8754H16.6618C16.8892 13.8754 17.1072 13.7851 17.2679 13.6244C17.4287 13.4636 17.519 13.2456 17.519 13.0183V10.2326C17.519 10.0052 17.4287 9.78722 17.2679 9.62647C17.1072 9.46573 16.8892 9.37542 16.6618 9.37542H14.2516V6.96342C14.2516 6.73609 14.1613 6.51807 14.0005 6.35733C13.8398 6.19658 13.6218 6.10628 13.3944 6.10628L10.6087 6.10799Z" stroke="#2859C5" stroke-linecap="round" stroke-linejoin="round"/>
</svg>
