<svg width="24" height="17" viewBox="0 0 24 17" fill="none" xmlns="http://www.w3.org/2000/svg">
<path fill-rule="evenodd" clip-rule="evenodd" d="M7.76295 15.1598V15.1198L4.70164 15.1217C2.1077 15.1217 0 13.015 0 10.4188C0 8.49498 1.1567 6.84195 2.81168 6.11356L3.05871 6.02862L3.10883 5.53196C3.35846 4.3131 4.43802 3.39399 5.73043 3.39399L6.1607 3.43207L6.42855 3.01385C7.77402 1.18833 9.93998 -0.000592578 12.3823 -0.000592578C16.2081 -0.000592578 19.3563 2.91133 19.7348 6.63496L19.7556 7.04536L19.9551 7.03332C22.1885 7.03332 24 8.84583 24 11.0775C24 13.1683 22.4117 14.8894 20.374 15.0993L20.3118 15.1107H20.2233L16.237 15.1139V15.1598C16.237 16.1391 15.4413 16.9336 14.4629 16.9336H9.53673C8.55773 16.9336 7.76295 16.1388 7.76295 15.1598ZM15.0166 15.1598V11.0661C15.0166 10.7615 14.7676 10.5125 14.4629 10.5125H9.53673C9.23209 10.5125 8.98344 10.7612 8.98344 11.0661V15.1598C8.98344 15.4648 9.23177 15.7131 9.53673 15.7131H14.4629C14.7679 15.7131 15.0166 15.4645 15.0166 15.1598ZM11.3896 14.2004V12.9551C11.3896 12.9398 11.3899 12.9242 11.3912 12.9089C11.3092 12.7901 11.2614 12.6459 11.2614 12.4907C11.2614 12.0832 11.5924 11.7525 11.9998 11.7525C12.4073 11.7525 12.7383 12.0832 12.7383 12.4907C12.7383 12.6459 12.6901 12.7901 12.6081 12.9089C12.6094 12.9242 12.6101 12.9398 12.6101 12.9551V14.2004C12.6101 14.5372 12.3364 14.8106 11.9998 14.8106C11.663 14.8106 11.3896 14.5372 11.3896 14.2004ZM4.70132 13.9013L7.76295 13.8993V11.0661C7.76295 10.3042 8.24496 9.65298 8.92063 9.40237L8.92095 8.25283C8.92095 6.55261 10.2999 5.17427 11.9998 5.17427C13.6994 5.17427 15.0787 6.55261 15.0787 8.25283V9.3516C15.0787 9.36852 15.0777 9.38512 15.0768 9.40172C15.7534 9.65168 16.237 10.3033 16.237 11.0661V13.8934L20.223 13.8902H20.2334L20.249 13.8856C21.6707 13.7388 22.7795 12.5359 22.7795 11.0775C22.7795 9.51986 21.5144 8.25381 19.9551 8.25381C19.7296 8.25381 19.5073 8.28115 19.2931 8.33127C18.8987 8.4237 18.5247 8.11191 18.5446 7.70768C18.5495 7.60191 18.5527 7.49548 18.5527 7.3897C18.5527 3.98633 15.7892 1.2199 12.3823 1.2199C10.0549 1.2199 8.0243 2.51361 6.97305 4.42245C6.82822 4.6851 6.51415 4.8039 6.23197 4.70235C6.07575 4.64637 5.90521 4.61448 5.73043 4.61448C4.92817 4.61448 4.27496 5.26768 4.27496 6.07093C4.27496 6.16466 4.2831 6.25384 4.29905 6.33846C4.35861 6.65513 4.16137 6.964 3.84893 7.04276C2.33813 7.42453 1.22049 8.7931 1.22049 10.4188C1.22049 12.341 2.78174 13.9013 4.70132 13.9013ZM13.8582 9.29204V8.25283C13.8582 7.2273 13.0254 6.39476 11.9998 6.39476C10.974 6.39476 10.1414 7.2273 10.1414 8.25283V9.29204H13.8582Z" fill="#2F67AD"/>
</svg>
