<svg width="22" height="17" viewBox="0 0 22 17" fill="none" xmlns="http://www.w3.org/2000/svg">
<path d="M21 4.96653C21 4.36071 21 4.0578 20.8802 3.91754C20.7763 3.79583 20.6203 3.73125 20.4608 3.7438C20.2769 3.75828 20.0627 3.97247 19.6343 4.40084L16 8.03516L19.6343 11.6695C20.0627 12.0978 20.2769 12.312 20.4608 12.3265C20.6203 12.3391 20.7763 12.2745 20.8802 12.1528C21 12.0125 21 11.7096 21 11.1038V4.96653Z" stroke="#8FA6B0" stroke-width="2" stroke-linecap="round" stroke-linejoin="round"/>
<path d="M1 5.83516C1 4.155 1 3.31492 1.32698 2.67318C1.6146 2.1087 2.07354 1.64976 2.63803 1.36214C3.27976 1.03516 4.11984 1.03516 5.8 1.03516H11.2C12.8802 1.03516 13.7202 1.03516 14.362 1.36214C14.9265 1.64976 15.3854 2.1087 15.673 2.67318C16 3.31492 16 4.155 16 5.83516V10.2352C16 11.9153 16 12.7554 15.673 13.3971C15.3854 13.9616 14.9265 14.4206 14.362 14.7082C13.7202 15.0352 12.8802 15.0352 11.2 15.0352H5.8C4.11984 15.0352 3.27976 15.0352 2.63803 14.7082C2.07354 14.4206 1.6146 13.9616 1.32698 13.3971C1 12.7554 1 11.9153 1 10.2352V5.83516Z" stroke="#8FA6B0" stroke-width="2" stroke-linecap="round" stroke-linejoin="round"/>
</svg>
