<svg width="17" height="17" viewBox="0 0 17 17" fill="none" xmlns="http://www.w3.org/2000/svg">
<path fill-rule="evenodd" clip-rule="evenodd" d="M7.7953 3.46723C8.05563 3.20689 8.4777 3.20689 8.73803 3.46723L11.4045 6.1339C11.6648 6.39425 11.6648 6.81636 11.4045 7.07671C11.1442 7.33706 10.7221 7.33706 10.4618 7.07671L8.26666 4.88145L6.07158 7.07671C5.81125 7.33706 5.38917 7.33706 5.12884 7.07671C4.86851 6.81636 4.86851 6.39425 5.12884 6.1339L7.7953 3.46723ZM5.12884 10.1339C5.38917 9.87355 5.81125 9.87355 6.07158 10.1339L8.26666 12.3292L10.4618 10.1339C10.7221 9.87355 11.1442 9.87355 11.4045 10.1339C11.6648 10.3943 11.6648 10.8164 11.4045 11.0767L8.73803 13.7434C8.4777 14.0037 8.05563 14.0037 7.7953 13.7434L5.12884 11.0767C4.86851 10.8164 4.86851 10.3943 5.12884 10.1339Z" fill="#667085"/>
</svg>
