<svg width="49" height="48" viewBox="0 0 49 48" fill="none" xmlns="http://www.w3.org/2000/svg">
<rect x="4.25" y="4" width="40" height="40" rx="20" fill="#F4EBFF"/>
<rect x="4.25" y="4" width="40" height="40" rx="20" stroke="#F9F5FF" stroke-width="8"/>
<path d="M34.25 33V31C34.25 29.1362 32.9752 27.5701 31.25 27.126M27.75 15.2908C29.2159 15.8841 30.25 17.3213 30.25 19C30.25 20.6787 29.2159 22.1159 27.75 22.7092M29.25 33C29.25 31.1362 29.25 30.2044 28.9455 29.4693C28.5395 28.4892 27.7608 27.7105 26.7807 27.3045C26.0456 27 25.1138 27 23.25 27H20.25C18.3862 27 17.4544 27 16.7193 27.3045C15.7392 27.7105 14.9605 28.4892 14.5545 29.4693C14.25 30.2044 14.25 31.1362 14.25 33M25.75 19C25.75 21.2091 23.9591 23 21.75 23C19.5409 23 17.75 21.2091 17.75 19C17.75 16.7909 19.5409 15 21.75 15C23.9591 15 25.75 16.7909 25.75 19Z" stroke="#9552E8" stroke-width="2" stroke-linecap="round" stroke-linejoin="round"/>
</svg>
