<svg width="49" height="48" viewBox="0 0 49 48" fill="none" xmlns="http://www.w3.org/2000/svg">
<rect x="4.75" y="4" width="40" height="40" rx="20" fill="#F4EBFF"/>
<rect x="4.75" y="4" width="40" height="40" rx="20" stroke="#F9F5FF" stroke-width="8"/>
<path d="M28.75 23.5H27.75L26.25 26.5L24.25 20.5L22.75 23.5H21.75M25.2432 17.1358C23.2438 14.7984 19.9097 14.1696 17.4047 16.31C14.8996 18.4504 14.547 22.029 16.5142 24.5604C18.0001 26.4724 22.2213 30.311 24.198 32.0749C24.5614 32.3991 24.7431 32.5613 24.9558 32.6251C25.1405 32.6805 25.3458 32.6805 25.5305 32.6251C25.7432 32.5613 25.9249 32.3991 26.2883 32.0749C28.265 30.311 32.4862 26.4724 33.9721 24.5604C35.9393 22.029 35.6297 18.4279 33.0816 16.31C30.5335 14.1922 27.2425 14.7984 25.2432 17.1358Z" stroke="#9552E8" stroke-width="2" stroke-linecap="round" stroke-linejoin="round"/>
</svg>
