<svg width="1024" height="1024" viewBox="0 0 1024 1024" fill="none" xmlns="http://www.w3.org/2000/svg">
<path d="M512.857 523.948H474.206L493.539 492.028L512.857 460.108L532.19 492.028L551.523 523.948H512.857Z" fill="#EC6263"/>
<path d="M512.857 523.856H551.523L532.19 555.792L512.857 587.712L493.539 555.792L474.206 523.856H512.857Z" fill="#EA4D63"/>
<path d="M706.17 587.712H667.504L686.837 555.792L706.17 523.856L725.488 555.792L744.821 587.712H706.17Z" fill="#E72166"/>
<path d="M667.504 523.856H706.17L686.837 555.792L667.504 587.712L648.187 555.792L628.854 523.856H667.504Z" fill="#E83165"/>
<path d="M667.504 523.948H628.854L648.187 492.028L667.504 460.108L686.837 492.028L706.17 523.948H667.504Z" fill="#EA4D63"/>
<path d="M628.852 460.108H667.503L648.185 492.028L628.852 523.948L609.519 492.028L590.202 460.108H628.852Z" fill="#EC6263"/>
<path d="M628.852 460.203H590.202L609.519 428.284L628.852 396.348L648.185 428.284L667.503 460.203H628.852Z" fill="#EE735F"/>
<path d="M590.201 396.348H628.852L609.519 428.284L590.201 460.203L570.868 428.284L551.535 396.348H590.201Z" fill="#F0825B"/>
<path d="M590.201 396.441H551.535L570.868 364.521L590.201 332.602L609.519 364.521L628.852 396.441H590.201Z" fill="#F39356"/>
<path d="M551.534 332.602H590.2L570.867 364.521L551.534 396.441L532.216 364.521L512.883 332.602H551.534Z" fill="#F6A24B"/>
<path d="M551.534 332.695H512.883L532.216 300.775L551.534 268.84L570.867 300.775L590.2 332.695H551.534Z" fill="#F7B13C"/>
<path d="M474.236 332.695H435.585L454.903 300.775L474.236 268.84L493.553 300.775L512.886 332.695H474.236Z" fill="#F7B13C"/>
<path d="M512.888 268.84H474.237L493.555 236.92L512.888 205L532.221 236.92L551.538 268.84H512.888Z" fill="#F2CC37"/>
<path d="M512.888 268.84H551.538L532.221 300.775L512.888 332.695L493.555 300.775L474.237 268.84H512.888Z" fill="#EFBE43"/>
<path d="M435.584 396.441H396.917L416.251 364.521L435.584 332.602L454.901 364.521L474.234 396.441H435.584Z" fill="#F39356"/>
<path d="M474.236 332.602H512.886L493.553 364.521L474.236 396.441L454.903 364.521L435.585 332.602H474.236Z" fill="#F6A24B"/>
<path d="M396.917 460.203H358.267L377.6 428.284L396.917 396.348L416.25 428.284L435.583 460.203H396.917Z" fill="#EE735F"/>
<path d="M435.584 396.348H474.234L454.901 428.284L435.584 460.203L416.251 428.284L396.917 396.348H435.584Z" fill="#F0825B"/>
<path d="M358.265 523.948H319.615L338.932 492.028L358.265 460.108L377.598 492.028L396.916 523.948H358.265Z" fill="#EA4D63"/>
<path d="M396.917 460.108H435.583L416.25 492.028L396.917 523.948L377.6 492.028L358.267 460.108H396.917Z" fill="#EC6263"/>
<path d="M319.619 587.712H280.953L300.286 555.792L319.619 523.856L338.937 555.792L358.27 587.712H319.619Z" fill="#E72166"/>
<path d="M358.265 523.856H396.916L377.598 555.792L358.265 587.712L338.932 555.792L319.615 523.856H358.265Z" fill="#E83165"/>
<path d="M474.267 587.712H435.601L454.934 555.792L474.267 523.856L493.585 555.792L512.918 587.712H474.267Z" fill="#E72166"/>
<path d="M551.518 587.712H512.852L532.185 555.792L551.518 523.856L570.836 555.792L590.169 587.712H551.518Z" fill="#E83165"/>
<path d="M266.813 784.051C273.499 795.881 283.579 805.432 295.75 811.471C308.234 817.824 322.71 821 339.179 821C361.708 821 379.838 816.329 393.567 806.986V770.785C386.675 776.039 378.892 780.005 370.591 782.494C361.505 785.07 352.094 786.313 342.65 786.184C327.925 786.174 316.479 782.271 308.312 774.475C300.145 766.679 296.061 755.915 296.061 742.181C296.061 728.407 300.103 717.658 308.187 709.935C316.271 702.211 327.754 698.35 342.635 698.35C351.956 698.211 361.25 699.375 370.249 701.807C378.094 704.032 385.422 707.79 391.808 712.862V676.458C384.538 671.81 376.563 668.372 368.194 666.274C358.697 663.971 348.951 662.862 339.179 662.973C322.679 662.973 308.203 666.186 295.75 672.612C283.589 678.715 273.516 688.297 266.813 700.141C260.026 712.078 256.632 726.071 256.632 742.119C256.632 758.167 260.026 772.145 266.813 784.051Z" fill="#341E4C"/>
<path fill-rule="evenodd" clip-rule="evenodd" d="M172.358 666.275H134.703L73.9956 817.762H113.424L125.566 786.543H181.401L193.59 817.762H232.769L172.358 666.275ZM153.554 706.152L171.968 757.068H134.874L153.554 706.152Z" fill="#341E4C"/>
<path d="M467.661 698.584H424.979V666.275H548.9V698.584H506V817.793H467.661V698.584Z" fill="#341E4C"/>
<path d="M624.085 666.275H585.73V817.762H624.085V666.275Z" fill="#341E4C"/>
<path d="M668.494 666.275H705.323L749.095 760.104L793.147 666.275H829.759V817.762H793.957V741.684L757.781 817.762H740.425L704.421 741.684V817.762H668.494V666.275Z" fill="#341E4C"/>
<path d="M912.43 666.275H874.091V817.762H912.43V666.275Z" fill="#341E4C"/>
</svg>
